<?xml version="1.0" standalone="no"?>
<!DOCTYPE svg PUBLIC "-//W3C//DTD SVG 20010904//EN"
 "http://www.w3.org/TR/2001/REC-SVG-20010904/DTD/svg10.dtd">
<svg version="1.0" xmlns="http://www.w3.org/2000/svg"
 width="1186.000000pt" height="299.000000pt" viewBox="0 0 1186.000000 299.000000"
 preserveAspectRatio="xMidYMid meet">
<metadata>
Created by potrace 1.16, written by Peter Selinger 2001-2019
</metadata>
<g transform="translate(0.000000,299.000000) scale(0.100000,-0.100000)"
fill="#241d18" stroke="none">
<path d="M3726 2983 c-3 -4 -37 -12 -74 -19 -120 -22 -401 -99 -467 -129 -62
-28 -203 -84 -290 -115 -120 -43 -320 -140 -375 -182 -59 -44 -217 -148 -226
-148 -10 0 -97 -56 -164 -104 -93 -69 -345 -298 -444 -404 -57 -62 -309 -252
-333 -252 -6 0 -71 -47 -191 -139 -31 -24 -75 -55 -96 -68 -42 -27 -187 -103
-197 -103 -3 0 -41 -19 -85 -43 -161 -87 -169 -89 -419 -132 -189 -32 -276
-59 -312 -97 l-28 -29 -7 -362 c-4 -199 -10 -407 -13 -463 l-6 -101 30 -32 30
-33 523 3 c348 2 555 -1 618 -9 69 -8 152 -9 310 -1 148 7 261 7 361 0 91 -6
193 -7 270 -1 202 14 995 23 1074 11 89 -12 847 -14 1505 -4 278 4 550 5 605
0 55 -4 354 -6 665 -5 624 2 1254 1 2108 -1 310 -1 567 1 571 3 21 14 1643 0
1743 -14 60 -8 97 -8 160 2 62 10 219 12 628 10 503 -2 548 -1 578 15 21 12
35 29 42 51 5 20 5 149 -1 330 -11 356 -4 556 23 669 18 76 18 84 3 113 -10
19 -31 38 -53 47 -49 20 -180 21 -224 1 -76 -35 -208 -82 -283 -100 -120 -29
-186 -31 -344 -14 -196 22 -227 43 -277 184 -41 117 -31 264 34 457 32 99 73
171 167 300 12 17 51 85 86 153 52 101 77 136 132 190 37 37 90 94 117 128 27
33 81 87 121 120 134 110 149 129 149 188 0 31 -6 40 -42 66 -23 17 -59 35
-80 40 -21 6 -55 14 -77 20 -51 13 -368 13 -428 -1 -64 -14 -343 -103 -443
-142 -68 -25 -215 -97 -335 -162 -125 -68 -342 -175 -388 -191 -37 -13 -114
-53 -202 -104 -46 -27 -145 -106 -190 -150 -16 -17 -46 -38 -65 -48 -195 -99
-309 -178 -458 -319 -174 -165 -237 -218 -337 -278 -130 -79 -216 -137 -280
-190 -161 -134 -264 -184 -500 -241 -89 -21 -143 -27 -281 -31 -169 -6 -171
-5 -210 20 -67 43 -91 77 -124 176 -45 135 -48 177 -16 300 15 57 36 126 46
155 11 28 32 98 47 156 28 109 41 136 133 260 30 41 81 111 112 156 71 101
124 149 285 258 103 69 178 146 190 195 20 77 -23 124 -153 166 -164 54 -431
24 -784 -87 -52 -17 -109 -36 -127 -44 -17 -8 -35 -14 -39 -14 -10 0 -101 -35
-169 -66 -27 -12 -97 -41 -155 -64 -146 -59 -197 -86 -335 -177 -66 -44 -165
-106 -220 -138 -114 -67 -158 -98 -235 -170 -30 -28 -118 -98 -195 -156 -77
-57 -178 -140 -225 -184 -161 -150 -205 -188 -310 -259 -57 -39 -120 -80 -140
-91 -19 -11 -61 -38 -93 -60 -345 -237 -559 -314 -913 -332 -112 -5 -125 -4
-155 15 -58 36 -97 85 -125 157 -24 61 -27 85 -28 190 -1 117 0 124 45 260 26
77 52 165 59 195 19 86 57 157 135 255 39 50 87 113 105 140 40 58 163 181
223 221 100 68 174 128 214 175 68 80 69 110 4 177 -31 32 -49 41 -102 51 -35
7 -77 17 -93 22 -34 10 -279 12 -290 2z"/>
</g>
</svg>
