<svg xmlns="http://www.w3.org/2000/svg" viewBox="0 0 64 64" fill="#241D18">
  <!-- straw -->
  <path d="M33 22 L45 5 L48.5 7.5 L36 24 Z"/>
  <!-- coconut body (oval thambili) -->
  <path d="M32 16 C42 16 48 25 48 37 C48 51 41 59 32 59 C23 59 16 51 16 37 C16 25 22 16 32 16 Z"/>
  <!-- carved highlights (terracotta cut-outs) -->
  <!-- cut-open top opening where you drink -->
  <ellipse cx="32" cy="21" rx="8.5" ry="3.2" fill="#C24A2C"/>
  <!-- center longitudinal rib -->
  <path d="M31 26 C29.5 36 29.5 46 31 53 L33 53 C31.5 46 31.5 36 33 26 Z" fill="#C24A2C"/>
  <!-- left rib -->
  <path d="M23.5 28 C20.5 36 20.5 45 23 52 L25 51.5 C22.7 45 22.7 36 25.5 28 Z" fill="#C24A2C"/>
  <!-- right rib -->
  <path d="M40.5 28 C43.3 36 43.3 45 41 51.5 L39 52 C41.5 45 41.5 36 38.5 28 Z" fill="#C24A2C"/>
  <!-- upper-left round highlight crescent -->
  <path d="M22 30 C18.5 35 18.5 43 21.5 49 C19.5 43 19.5 35 22.5 31 Z" fill="#C24A2C"/>
</svg>
