<svg xmlns="http://www.w3.org/2000/svg" viewBox="0 0 360 360">
<circle cx="180" cy="180" r="178" fill="#241D18"/>
<circle cx="180" cy="180" r="174" fill="none" stroke="#EFE3D0" stroke-width="2"/>
<circle cx="180" cy="180" r="128" fill="none" stroke="#C24A2C" stroke-width="2.5"/>
<g transform="translate(106.5,155.5) scale(0.124)"><g transform="translate(0,299) scale(0.1,-0.1)" fill="#EFE3D0"><path d="M3726 2983 c-3 -4 -37 -12 -74 -19 -120 -22 -401 -99 -467 -129 -62 -28 -203 -84 -290 -115 -120 -43 -320 -140 -375 -182 -59 -44 -217 -148 -226 -148 -10 0 -97 -56 -164 -104 -93 -69 -345 -298 -444 -404 -57 -62 -309 -252 -333 -252 -6 0 -71 -47 -191 -139 -31 -24 -75 -55 -96 -68 -42 -27 -187 -103 -197 -103 -3 0 -41 -19 -85 -43 -161 -87 -169 -89 -419 -132 -189 -32 -276 -59 -312 -97 l-28 -29 -7 -362 c-4 -199 -10 -407 -13 -463 l-6 -101 30 -32 30 -33 523 3 c348 2 555 -1 618 -9 69 -8 152 -9 310 -1 148 7 261 7 361 0 91 -6 193 -7 270 -1 202 14 995 23 1074 11 89 -12 847 -14 1505 -4 278 4 550 5 605 0 55 -4 354 -6 665 -5 624 2 1254 1 2108 -1 310 -1 567 1 571 3 21 14 1643 0 1743 -14 60 -8 97 -8 160 2 62 10 219 12 628 10 503 -2 548 -1 578 15 21 12 35 29 42 51 5 20 5 149 -1 330 -11 356 -4 556 23 669 18 76 18 84 3 113 -10 19 -31 38 -53 47 -49 20 -180 21 -224 1 -76 -35 -208 -82 -283 -100 -120 -29 -186 -31 -344 -14 -196 22 -227 43 -277 184 -41 117 -31 264 34 457 32 99 73 171 167 300 12 17 51 85 86 153 52 101 77 136 132 190 37 37 90 94 117 128 27 33 81 87 121 120 134 110 149 129 149 188 0 31 -6 40 -42 66 -23 17 -59 35 -80 40 -21 6 -55 14 -77 20 -51 13 -368 13 -428 -1 -64 -14 -343 -103 -443 -142 -68 -25 -215 -97 -335 -162 -125 -68 -342 -175 -388 -191 -37 -13 -114 -53 -202 -104 -46 -27 -145 -106 -190 -150 -16 -17 -46 -38 -65 -48 -195 -99 -309 -178 -458 -319 -174 -165 -237 -218 -337 -278 -130 -79 -216 -137 -280 -190 -161 -134 -264 -184 -500 -241 -89 -21 -143 -27 -281 -31 -169 -6 -171 -5 -210 20 -67 43 -91 77 -124 176 -45 135 -48 177 -16 300 15 57 36 126 46 155 11 28 32 98 47 156 28 109 41 136 133 260 30 41 81 111 112 156 71 101 124 149 285 258 103 69 178 146 190 195 20 77 -23 124 -153 166 -164 54 -431 24 -784 -87 -52 -17 -109 -36 -127 -44 -17 -8 -35 -14 -39 -14 -10 0 -101 -35 -169 -66 -27 -12 -97 -41 -155 -64 -146 -59 -197 -86 -335 -177 -66 -44 -165 -106 -220 -138 -114 -67 -158 -98 -235 -170 -30 -28 -118 -98 -195 -156 -77 -57 -178 -140 -225 -184 -161 -150 -205 -188 -310 -259 -57 -39 -120 -80 -140 -91 -19 -11 -61 -38 -93 -60 -345 -237 -559 -314 -913 -332 -112 -5 -125 -4 -155 15 -58 36 -97 85 -125 157 -24 61 -27 85 -28 190 -1 117 0 124 45 260 26 77 52 165 59 195 19 86 57 157 135 255 39 50 87 113 105 140 40 58 163 181 223 221 100 68 174 128 214 175 68 80 69 110 4 177 -31 32 -49 41 -102 51 -35 7 -77 17 -93 22 -34 10 -279 12 -290 2z"/></g></g>
<text x="180" y="232" font-size="20" fill="#C24A2C" font-family="Permanent Marker" text-anchor="middle">est. 26</text>
<text x="34.5" y="143.5" font-size="15" fill="#EFE3D0" font-family="Ultra" text-anchor="middle" dominant-baseline="central" transform="rotate(-75.90 34.5 143.5)">T</text>
<text x="39.7" y="127.0" font-size="15" fill="#EFE3D0" font-family="Ultra" text-anchor="middle" dominant-baseline="central" transform="rotate(-69.30 39.7 127.0)">W</text>
<text x="46.7" y="111.2" font-size="15" fill="#EFE3D0" font-family="Ultra" text-anchor="middle" dominant-baseline="central" transform="rotate(-62.70 46.7 111.2)">O</text>
<text x="65.9" y="82.6" font-size="15" fill="#EFE3D0" font-family="Ultra" text-anchor="middle" dominant-baseline="central" transform="rotate(-49.50 65.9 82.6)">W</text>
<text x="77.9" y="70.1" font-size="15" fill="#EFE3D0" font-family="Ultra" text-anchor="middle" dominant-baseline="central" transform="rotate(-42.90 77.9 70.1)">A</text>
<text x="91.2" y="59.1" font-size="15" fill="#EFE3D0" font-family="Ultra" text-anchor="middle" dominant-baseline="central" transform="rotate(-36.30 91.2 59.1)">V</text>
<text x="105.7" y="49.7" font-size="15" fill="#EFE3D0" font-family="Ultra" text-anchor="middle" dominant-baseline="central" transform="rotate(-29.70 105.7 49.7)">E</text>
<text x="121.1" y="42.0" font-size="15" fill="#EFE3D0" font-family="Ultra" text-anchor="middle" dominant-baseline="central" transform="rotate(-23.10 121.1 42.0)">S</text>
<text x="154.2" y="32.2" font-size="15" fill="#EFE3D0" font-family="Ultra" text-anchor="middle" dominant-baseline="central" transform="rotate(-9.90 154.2 32.2)">·</text>
<text x="188.6" y="30.2" font-size="15" fill="#EFE3D0" font-family="Ultra" text-anchor="middle" dominant-baseline="central" transform="rotate(3.30 188.6 30.2)">T</text>
<text x="205.8" y="32.2" font-size="15" fill="#EFE3D0" font-family="Ultra" text-anchor="middle" dominant-baseline="central" transform="rotate(9.90 205.8 32.2)">H</text>
<text x="222.6" y="36.2" font-size="15" fill="#EFE3D0" font-family="Ultra" text-anchor="middle" dominant-baseline="central" transform="rotate(16.50 222.6 36.2)">R</text>
<text x="238.9" y="42.0" font-size="15" fill="#EFE3D0" font-family="Ultra" text-anchor="middle" dominant-baseline="central" transform="rotate(23.10 238.9 42.0)">E</text>
<text x="254.3" y="49.7" font-size="15" fill="#EFE3D0" font-family="Ultra" text-anchor="middle" dominant-baseline="central" transform="rotate(29.70 254.3 49.7)">E</text>
<text x="282.1" y="70.1" font-size="15" fill="#EFE3D0" font-family="Ultra" text-anchor="middle" dominant-baseline="central" transform="rotate(42.90 282.1 70.1)">W</text>
<text x="294.1" y="82.6" font-size="15" fill="#EFE3D0" font-family="Ultra" text-anchor="middle" dominant-baseline="central" transform="rotate(49.50 294.1 82.6)">H</text>
<text x="304.5" y="96.3" font-size="15" fill="#EFE3D0" font-family="Ultra" text-anchor="middle" dominant-baseline="central" transform="rotate(56.10 304.5 96.3)">E</text>
<text x="313.3" y="111.2" font-size="15" fill="#EFE3D0" font-family="Ultra" text-anchor="middle" dominant-baseline="central" transform="rotate(62.70 313.3 111.2)">E</text>
<text x="320.3" y="127.0" font-size="15" fill="#EFE3D0" font-family="Ultra" text-anchor="middle" dominant-baseline="central" transform="rotate(69.30 320.3 127.0)">L</text>
<text x="325.5" y="143.5" font-size="15" fill="#EFE3D0" font-family="Ultra" text-anchor="middle" dominant-baseline="central" transform="rotate(75.90 325.5 143.5)">S</text>
<text x="65.9" y="277.4" font-size="17" fill="#C24A2C" font-family="Ultra" text-anchor="middle" dominant-baseline="central" transform="rotate(49.50 65.9 277.4)">·</text>
<text x="101.6" y="307.9" font-size="17" fill="#C24A2C" font-family="Ultra" text-anchor="middle" dominant-baseline="central" transform="rotate(31.50 101.6 307.9)">O</text>
<text x="122.6" y="318.6" font-size="17" fill="#C24A2C" font-family="Ultra" text-anchor="middle" dominant-baseline="central" transform="rotate(22.50 122.6 318.6)">N</text>
<text x="145.0" y="325.9" font-size="17" fill="#C24A2C" font-family="Ultra" text-anchor="middle" dominant-baseline="central" transform="rotate(13.50 145.0 325.9)">E</text>
<text x="191.8" y="329.5" font-size="17" fill="#C24A2C" font-family="Ultra" text-anchor="middle" dominant-baseline="central" transform="rotate(-4.50 191.8 329.5)">C</text>
<text x="215.0" y="325.9" font-size="17" fill="#C24A2C" font-family="Ultra" text-anchor="middle" dominant-baseline="central" transform="rotate(-13.50 215.0 325.9)">L</text>
<text x="237.4" y="318.6" font-size="17" fill="#C24A2C" font-family="Ultra" text-anchor="middle" dominant-baseline="central" transform="rotate(-22.50 237.4 318.6)">U</text>
<text x="258.4" y="307.9" font-size="17" fill="#C24A2C" font-family="Ultra" text-anchor="middle" dominant-baseline="central" transform="rotate(-31.50 258.4 307.9)">B</text>
<text x="294.1" y="277.4" font-size="17" fill="#C24A2C" font-family="Ultra" text-anchor="middle" dominant-baseline="central" transform="rotate(-49.50 294.1 277.4)">·</text>
</svg>