<svg xmlns="http://www.w3.org/2000/svg" viewBox="0 0 420 280">
  <ellipse cx="210" cy="140" rx="200" ry="132" fill="#EFE3D0" stroke="#241D18" stroke-width="5"/>
  <ellipse cx="210" cy="140" rx="188" ry="120" fill="none" stroke="#241D18" stroke-width="1.6"/>
  <path d="M 205 198 C 201 172 207 148 209 128 L 217 128 C 215 150 213 174 215 198 Z" fill="#241D18"/><path d="M 211.0 126.0 Q 179.6 134.1 145.6 140.8 Q 177.1 151.9 211.0 126.0 Z" fill="#241D18"/><path d="M 211.0 126.0 Q 188.8 110.4 154.3 97.7 Q 176.5 126.1 211.0 126.0 Z" fill="#241D18"/><path d="M 211.0 126.0 Q 209.5 102.9 191.2 79.5 Q 192.6 109.0 211.0 126.0 Z" fill="#241D18"/><path d="M 211.0 126.0 Q 218.0 106.8 211.0 86.0 Q 204.0 106.8 211.0 126.0 Z" fill="#241D18"/><path d="M 211.0 126.0 Q 229.4 109.0 230.8 79.5 Q 212.5 102.9 211.0 126.0 Z" fill="#241D18"/><path d="M 211.0 126.0 Q 245.5 126.1 267.7 97.7 Q 233.2 110.4 211.0 126.0 Z" fill="#241D18"/><path d="M 211.0 126.0 Q 244.9 151.9 276.4 140.8 Q 242.4 134.1 211.0 126.0 Z" fill="#241D18"/><circle cx="205" cy="130" r="4.2" fill="#241D18"/><circle cx="218" cy="131" r="4.2" fill="#241D18"/><circle cx="211" cy="136" r="4.2" fill="#241D18"/><rect x="206.0" y="150" width="9" height="2.4" rx="1.2" fill="#EFE3D0"/><rect x="206.5" y="162" width="9" height="2.4" rx="1.2" fill="#EFE3D0"/><rect x="206.0" y="174" width="9" height="2.4" rx="1.2" fill="#EFE3D0"/><rect x="206.5" y="186" width="9" height="2.4" rx="1.2" fill="#EFE3D0"/><path d="M 165 200 Q 211 210 257 200" stroke="#241D18" stroke-width="3" fill="none" stroke-linecap="round"/>
  <text x="89.5" y="128.7" font-size="21" fill="#241D18" font-family="DM Sans" font-weight="700" text-anchor="middle" dominant-baseline="central" letter-spacing="0.5" transform="rotate(-60.80 89.5 128.7)">T</text>
<text x="97.8" y="115.7" font-size="21" fill="#241D18" font-family="DM Sans" font-weight="700" text-anchor="middle" dominant-baseline="central" letter-spacing="0.5" transform="rotate(-54.40 97.8 115.7)">U</text>
<text x="107.4" y="103.7" font-size="21" fill="#241D18" font-family="DM Sans" font-weight="700" text-anchor="middle" dominant-baseline="central" letter-spacing="0.5" transform="rotate(-48.00 107.4 103.7)">K</text>
<text x="130.5" y="83.2" font-size="21" fill="#241D18" font-family="DM Sans" font-weight="700" text-anchor="middle" dominant-baseline="central" letter-spacing="0.5" transform="rotate(-35.20 130.5 83.2)">&amp;</text>
<text x="157.4" y="68.4" font-size="21" fill="#241D18" font-family="DM Sans" font-weight="700" text-anchor="middle" dominant-baseline="central" letter-spacing="0.5" transform="rotate(-22.40 157.4 68.4)">T</text>
<text x="172.0" y="63.3" font-size="21" fill="#241D18" font-family="DM Sans" font-weight="700" text-anchor="middle" dominant-baseline="central" letter-spacing="0.5" transform="rotate(-16.00 172.0 63.3)">I</text>
<text x="187.0" y="59.9" font-size="21" fill="#241D18" font-family="DM Sans" font-weight="700" text-anchor="middle" dominant-baseline="central" letter-spacing="0.5" transform="rotate(-9.60 187.0 59.9)">D</text>
<text x="202.3" y="58.2" font-size="21" fill="#241D18" font-family="DM Sans" font-weight="700" text-anchor="middle" dominant-baseline="central" letter-spacing="0.5" transform="rotate(-3.20 202.3 58.2)">E</text>
<text x="233.0" y="59.9" font-size="21" fill="#241D18" font-family="DM Sans" font-weight="700" text-anchor="middle" dominant-baseline="central" letter-spacing="0.5" transform="rotate(9.60 233.0 59.9)">S</text>
<text x="248.0" y="63.3" font-size="21" fill="#241D18" font-family="DM Sans" font-weight="700" text-anchor="middle" dominant-baseline="central" letter-spacing="0.5" transform="rotate(16.00 248.0 63.3)">U</text>
<text x="262.6" y="68.4" font-size="21" fill="#241D18" font-family="DM Sans" font-weight="700" text-anchor="middle" dominant-baseline="central" letter-spacing="0.5" transform="rotate(22.40 262.6 68.4)">R</text>
<text x="276.5" y="75.1" font-size="21" fill="#241D18" font-family="DM Sans" font-weight="700" text-anchor="middle" dominant-baseline="central" letter-spacing="0.5" transform="rotate(28.80 276.5 75.1)">F</text>
<text x="301.6" y="92.8" font-size="21" fill="#241D18" font-family="DM Sans" font-weight="700" text-anchor="middle" dominant-baseline="central" letter-spacing="0.5" transform="rotate(41.60 301.6 92.8)">C</text>
<text x="312.6" y="103.7" font-size="21" fill="#241D18" font-family="DM Sans" font-weight="700" text-anchor="middle" dominant-baseline="central" letter-spacing="0.5" transform="rotate(48.00 312.6 103.7)">L</text>
<text x="322.2" y="115.7" font-size="21" fill="#241D18" font-family="DM Sans" font-weight="700" text-anchor="middle" dominant-baseline="central" letter-spacing="0.5" transform="rotate(54.40 322.2 115.7)">U</text>
<text x="330.5" y="128.7" font-size="21" fill="#241D18" font-family="DM Sans" font-weight="700" text-anchor="middle" dominant-baseline="central" letter-spacing="0.5" transform="rotate(60.80 330.5 128.7)">B</text>
  <text x="210" y="232" font-size="15" fill="#241D18" font-family="DM Sans" font-weight="700" text-anchor="middle" letter-spacing="2.2">WELIGAMA &#183; SRI LANKA</text>
  <circle cx="92" cy="227" r="2.4" fill="#241D18"/><circle cx="328" cy="227" r="2.4" fill="#241D18"/>
</svg>