<svg xmlns="http://www.w3.org/2000/svg" viewBox="0 0 360 360">
<circle cx="180" cy="180" r="176" fill="#C24A2C" stroke="#241D18" stroke-width="4"/>
<circle cx="180" cy="180" r="166" fill="none" stroke="#241D18" stroke-width="2"/>
<text x="43.7" y="212.0" font-size="25" fill="#241D18" font-family="Ultra" text-anchor="middle" dominant-baseline="central" transform="rotate(76.80 43.7 212.0)">·</text>
<text x="61.8" y="255.0" font-size="25" fill="#241D18" font-family="Ultra" text-anchor="middle" dominant-baseline="central" transform="rotate(57.60 61.8 255.0)">S</text>
<text x="76.0" y="273.7" font-size="25" fill="#241D18" font-family="Ultra" text-anchor="middle" dominant-baseline="central" transform="rotate(48.00 76.0 273.7)">A</text>
<text x="93.0" y="289.7" font-size="25" fill="#241D18" font-family="Ultra" text-anchor="middle" dominant-baseline="central" transform="rotate(38.40 93.0 289.7)">L</text>
<text x="112.6" y="302.7" font-size="25" fill="#241D18" font-family="Ultra" text-anchor="middle" dominant-baseline="central" transform="rotate(28.80 112.6 302.7)">T</text>
<text x="134.0" y="312.2" font-size="25" fill="#241D18" font-family="Ultra" text-anchor="middle" dominant-baseline="central" transform="rotate(19.20 134.0 312.2)">Y</text>
<text x="180.0" y="320.0" font-size="25" fill="#241D18" font-family="Ultra" text-anchor="middle" dominant-baseline="central" transform="rotate(0.00 180.0 320.0)">A</text>
<text x="203.3" y="318.0" font-size="25" fill="#241D18" font-family="Ultra" text-anchor="middle" dominant-baseline="central" transform="rotate(-9.60 203.3 318.0)">L</text>
<text x="226.0" y="312.2" font-size="25" fill="#241D18" font-family="Ultra" text-anchor="middle" dominant-baseline="central" transform="rotate(-19.20 226.0 312.2)">L</text>
<text x="267.0" y="289.7" font-size="25" fill="#241D18" font-family="Ultra" text-anchor="middle" dominant-baseline="central" transform="rotate(-38.40 267.0 289.7)">D</text>
<text x="284.0" y="273.7" font-size="25" fill="#241D18" font-family="Ultra" text-anchor="middle" dominant-baseline="central" transform="rotate(-48.00 284.0 273.7)">A</text>
<text x="298.2" y="255.0" font-size="25" fill="#241D18" font-family="Ultra" text-anchor="middle" dominant-baseline="central" transform="rotate(-57.60 298.2 255.0)">Y</text>
<text x="316.3" y="212.0" font-size="25" fill="#241D18" font-family="Ultra" text-anchor="middle" dominant-baseline="central" transform="rotate(-76.80 316.3 212.0)">·</text>
<line x1="40" y1="205" x2="320" y2="205" stroke="#241D18" stroke-width="5"/>
<line x1="60" y1="198" x2="60" y2="212" stroke="#241D18" stroke-width="4"/>
<line x1="85" y1="198" x2="85" y2="212" stroke="#241D18" stroke-width="4"/>
<line x1="275" y1="198" x2="275" y2="212" stroke="#241D18" stroke-width="4"/>
<line x1="300" y1="198" x2="300" y2="212" stroke="#241D18" stroke-width="4"/>
<path d="M235.9,202.3 L267.1,192.8 L234.5,192.2 Z" fill="#241D18"/>
<path d="M233.7,189.1 L248.8,177.7 L230.0,179.7 Z" fill="#241D18"/>
<path d="M228.4,176.9 L251.8,154.1 L222.6,168.6 Z" fill="#241D18"/>
<path d="M220.4,166.2 L228.5,149.2 L212.8,159.6 Z" fill="#241D18"/>
<path d="M210.1,157.8 L220.4,126.8 L201.1,153.1 Z" fill="#241D18"/>
<path d="M198.1,152.0 L197.5,133.1 L188.2,149.6 Z" fill="#241D18"/>
<path d="M185.1,149.2 L180.0,117.0 L174.9,149.2 Z" fill="#241D18"/>
<path d="M171.8,149.6 L162.5,133.1 L161.9,152.0 Z" fill="#241D18"/>
<path d="M158.9,153.1 L139.6,126.8 L149.9,157.8 Z" fill="#241D18"/>
<path d="M147.2,159.6 L131.5,149.2 L139.6,166.2 Z" fill="#241D18"/>
<path d="M137.4,168.6 L108.2,154.1 L131.6,176.9 Z" fill="#241D18"/>
<path d="M130.0,179.7 L111.2,177.7 L126.3,189.1 Z" fill="#241D18"/>
<path d="M125.5,192.2 L92.9,192.8 L124.1,202.3 Z" fill="#241D18"/>
<path d="M128,205 A52,52 0 0 1 232,205 Z" fill="#241D18"/>
<path d="M144,205 A36,36 0 0 1 216,205" fill="none" stroke="#C24A2C" stroke-width="4"/>
<path d="M158,205 A22,22 0 0 1 202,205" fill="none" stroke="#C24A2C" stroke-width="3"/>
<text x="180" y="248" font-size="30" fill="#241D18" font-family="Permanent Marker" text-anchor="middle" dominant-baseline="central">Weligama</text>
</svg>