<svg xmlns="http://www.w3.org/2000/svg" viewBox="0 0 440 230">
  <rect x="8" y="8" width="424" height="214" rx="30" fill="#241D18"/>
  <rect x="22" y="22" width="396" height="186" rx="20" fill="none"
        stroke="#C24A2C" stroke-width="3" stroke-dasharray="8 5.5" stroke-linecap="round"/>
  <text x="220" y="108" font-family="Ultra" font-size="44" fill="#EFE3D0"
        text-anchor="middle" dominant-baseline="alphabetic"
        letter-spacing="0.5">EST. MMXXVI</text>
  <path d="M0,13 C2,5.5 7,1 14,1 C21,1 26,5.5 28,12 C26,6.8 22,5 18.5,6.8 C15.5,8.4 16,11.5 18.5,13 Z" fill="#C24A2C" transform="translate(121.0,140)"/>
  <path d="M0,13 C2,5.5 7,1 14,1 C21,1 26,5.5 28,12 C26,6.8 22,5 18.5,6.8 C15.5,8.4 16,11.5 18.5,13 Z" fill="#C24A2C" transform="translate(155.0,140)"/>
  <path d="M0,13 C2,5.5 7,1 14,1 C21,1 26,5.5 28,12 C26,6.8 22,5 18.5,6.8 C15.5,8.4 16,11.5 18.5,13 Z" fill="#C24A2C" transform="translate(189.0,140)"/>
  <path d="M0,13 C2,5.5 7,1 14,1 C21,1 26,5.5 28,12 C26,6.8 22,5 18.5,6.8 C15.5,8.4 16,11.5 18.5,13 Z" fill="#C24A2C" transform="translate(223.0,140)"/>
  <path d="M0,13 C2,5.5 7,1 14,1 C21,1 26,5.5 28,12 C26,6.8 22,5 18.5,6.8 C15.5,8.4 16,11.5 18.5,13 Z" fill="#C24A2C" transform="translate(257.0,140)"/>
  <path d="M0,13 C2,5.5 7,1 14,1 C21,1 26,5.5 28,12 C26,6.8 22,5 18.5,6.8 C15.5,8.4 16,11.5 18.5,13 Z" fill="#C24A2C" transform="translate(291.0,140)"/>
  <text x="220" y="192" font-family="DM Sans" font-weight="700" font-size="15"
        fill="#EFE3D0" text-anchor="middle" letter-spacing="3.5">SOUTH COAST &#183; SRI LANKA</text>
</svg>