<svg xmlns="http://www.w3.org/2000/svg" viewBox="0 0 360 360">
<circle cx="180" cy="180" r="178" fill="#EFE3D0"/>
<circle cx="180" cy="180" r="176" fill="none" stroke="#241D18" stroke-width="4"/>
<circle cx="180" cy="180" r="167" fill="none" stroke="#241D18" stroke-width="1.6"/>
<g transform="rotate(0 180 162) translate(180 162)"><path d="M 0 -14 C -28 -28 -50 -58 -42 -92 C -37 -110 -16 -120 0 -106 C 16 -120 37 -110 42 -92 C 50 -58 28 -28 0 -14 Z" fill="#C24A2C" stroke="#241D18" stroke-width="3" stroke-linejoin="round"/></g>
<g transform="rotate(72 180 162) translate(180 162)"><path d="M 0 -14 C -28 -28 -50 -58 -42 -92 C -37 -110 -16 -120 0 -106 C 16 -120 37 -110 42 -92 C 50 -58 28 -28 0 -14 Z" fill="#C24A2C" stroke="#241D18" stroke-width="3" stroke-linejoin="round"/></g>
<g transform="rotate(144 180 162) translate(180 162)"><path d="M 0 -14 C -28 -28 -50 -58 -42 -92 C -37 -110 -16 -120 0 -106 C 16 -120 37 -110 42 -92 C 50 -58 28 -28 0 -14 Z" fill="#C24A2C" stroke="#241D18" stroke-width="3" stroke-linejoin="round"/></g>
<g transform="rotate(216 180 162) translate(180 162)"><path d="M 0 -14 C -28 -28 -50 -58 -42 -92 C -37 -110 -16 -120 0 -106 C 16 -120 37 -110 42 -92 C 50 -58 28 -28 0 -14 Z" fill="#C24A2C" stroke="#241D18" stroke-width="3" stroke-linejoin="round"/></g>
<g transform="rotate(288 180 162) translate(180 162)"><path d="M 0 -14 C -28 -28 -50 -58 -42 -92 C -37 -110 -16 -120 0 -106 C 16 -120 37 -110 42 -92 C 50 -58 28 -28 0 -14 Z" fill="#C24A2C" stroke="#241D18" stroke-width="3" stroke-linejoin="round"/></g>
<g transform="rotate(0 180 162) translate(180 162)"><path d="M0 -18 L0 -88" stroke="#241D18" stroke-width="2.5" stroke-linecap="round" fill="none"/><path d="M0 -34 L-16 -70" stroke="#241D18" stroke-width="2" stroke-linecap="round" fill="none"/><path d="M0 -34 L16 -70" stroke="#241D18" stroke-width="2" stroke-linecap="round" fill="none"/></g>
<g transform="rotate(72 180 162) translate(180 162)"><path d="M0 -18 L0 -88" stroke="#241D18" stroke-width="2.5" stroke-linecap="round" fill="none"/><path d="M0 -34 L-16 -70" stroke="#241D18" stroke-width="2" stroke-linecap="round" fill="none"/><path d="M0 -34 L16 -70" stroke="#241D18" stroke-width="2" stroke-linecap="round" fill="none"/></g>
<g transform="rotate(144 180 162) translate(180 162)"><path d="M0 -18 L0 -88" stroke="#241D18" stroke-width="2.5" stroke-linecap="round" fill="none"/><path d="M0 -34 L-16 -70" stroke="#241D18" stroke-width="2" stroke-linecap="round" fill="none"/><path d="M0 -34 L16 -70" stroke="#241D18" stroke-width="2" stroke-linecap="round" fill="none"/></g>
<g transform="rotate(216 180 162) translate(180 162)"><path d="M0 -18 L0 -88" stroke="#241D18" stroke-width="2.5" stroke-linecap="round" fill="none"/><path d="M0 -34 L-16 -70" stroke="#241D18" stroke-width="2" stroke-linecap="round" fill="none"/><path d="M0 -34 L16 -70" stroke="#241D18" stroke-width="2" stroke-linecap="round" fill="none"/></g>
<g transform="rotate(288 180 162) translate(180 162)"><path d="M0 -18 L0 -88" stroke="#241D18" stroke-width="2.5" stroke-linecap="round" fill="none"/><path d="M0 -34 L-16 -70" stroke="#241D18" stroke-width="2" stroke-linecap="round" fill="none"/><path d="M0 -34 L16 -70" stroke="#241D18" stroke-width="2" stroke-linecap="round" fill="none"/></g>
<circle cx="180" cy="162" r="24" fill="#241D18"/><circle cx="180" cy="162" r="24" fill="none" stroke="#EFE3D0" stroke-width="2"/><circle cx="180" cy="162" r="9" fill="#C24A2C"/>
<path d="M180 162 C 174 196, 158 212, 150 228" stroke="#241D18" stroke-width="3.5" fill="none" stroke-linecap="round"/>
<circle cx="144" cy="223" r="3.4" fill="#241D18"/><circle cx="150" cy="221" r="3.4" fill="#241D18"/><circle cx="156" cy="224" r="3.4" fill="#241D18"/><circle cx="147" cy="231" r="3.4" fill="#241D18"/><circle cx="154" cy="230" r="3.4" fill="#241D18"/>
<text x="40.2" y="234.2" font-size="26" fill="#241D18" font-family="Ultra" text-anchor="middle" dominant-baseline="central" transform="rotate(68.80 40.2 234.2)">·</text>
<text x="62.4" y="273.2" font-size="26" fill="#241D18" font-family="Ultra" text-anchor="middle" dominant-baseline="central" transform="rotate(51.60 62.4 273.2)">R</text>
<text x="77.7" y="289.7" font-size="26" fill="#241D18" font-family="Ultra" text-anchor="middle" dominant-baseline="central" transform="rotate(43.00 77.7 289.7)">I</text>
<text x="95.3" y="303.8" font-size="26" fill="#241D18" font-family="Ultra" text-anchor="middle" dominant-baseline="central" transform="rotate(34.40 95.3 303.8)">D</text>
<text x="114.7" y="315.0" font-size="26" fill="#241D18" font-family="Ultra" text-anchor="middle" dominant-baseline="central" transform="rotate(25.80 114.7 315.0)">E</text>
<text x="157.6" y="328.3" font-size="26" fill="#241D18" font-family="Ultra" text-anchor="middle" dominant-baseline="central" transform="rotate(8.60 157.6 328.3)">T</text>
<text x="180.0" y="330.0" font-size="26" fill="#241D18" font-family="Ultra" text-anchor="middle" dominant-baseline="central" transform="rotate(0.00 180.0 330.0)">H</text>
<text x="202.4" y="328.3" font-size="26" fill="#241D18" font-family="Ultra" text-anchor="middle" dominant-baseline="central" transform="rotate(-8.60 202.4 328.3)">E</text>
<text x="245.3" y="315.0" font-size="26" fill="#241D18" font-family="Ultra" text-anchor="middle" dominant-baseline="central" transform="rotate(-25.80 245.3 315.0)">T</text>
<text x="264.7" y="303.8" font-size="26" fill="#241D18" font-family="Ultra" text-anchor="middle" dominant-baseline="central" transform="rotate(-34.40 264.7 303.8)">I</text>
<text x="282.3" y="289.7" font-size="26" fill="#241D18" font-family="Ultra" text-anchor="middle" dominant-baseline="central" transform="rotate(-43.00 282.3 289.7)">D</text>
<text x="297.6" y="273.2" font-size="26" fill="#241D18" font-family="Ultra" text-anchor="middle" dominant-baseline="central" transform="rotate(-51.60 297.6 273.2)">E</text>
<text x="319.8" y="234.2" font-size="26" fill="#241D18" font-family="Ultra" text-anchor="middle" dominant-baseline="central" transform="rotate(-68.80 319.8 234.2)">·</text>
<polygon points="58.0,241.0 60.7,248.3 68.5,248.6 62.4,253.4 64.5,260.9 58.0,256.6 51.5,260.9 53.6,253.4 47.5,248.6 55.3,248.3" fill="#241D18"/><polygon points="302.0,241.0 304.7,248.3 312.5,248.6 306.4,253.4 308.5,260.9 302.0,256.6 295.5,260.9 297.6,253.4 291.5,248.6 299.3,248.3" fill="#241D18"/>
</svg>