<svg xmlns="http://www.w3.org/2000/svg" viewBox="0 0 360 360">
  <circle cx="180" cy="180" r="172" fill="#EFE3D0"/>
  <circle cx="180" cy="180" r="172" fill="none" stroke="#241D18" stroke-width="5"/>
  <circle cx="180" cy="180" r="159" fill="none" stroke="#241D18" stroke-width="2"/>
  <path fill="#241D18" d="
  M 96 250
  C 122 250 150 250 176 248
  C 200 246 218 240 232 226
  C 244 213 260 206 274 212
  C 289 219 288 240 273 248
  C 263 253 250 251 242 244
  C 247 252 255 255 263 256
  C 220 261 140 261 96 250 Z"/>
  <path fill="none" stroke="#EFE3D0" stroke-width="4.5" stroke-linecap="round" d="M260 222 C271 226 272 238 263 244"/>
  <g stroke="#241D18" stroke-width="4.5" stroke-linecap="round" fill="none">
  <path d="M276 206 q5 -12 1 -23"/>
  <path d="M286 210 q12 -9 24 -8"/>
  <path d="M288 222 q13 1 22 10"/>
</g>
  <path fill="#EFE3D0" stroke="#EFE3D0" stroke-width="9" stroke-linejoin="round" d="M120 244 C152 234 210 233 240 240 C210 248 152 250 122 248 Z"/><path stroke="#EFE3D0" stroke-width="33" stroke-linecap="round" fill="none" d="M178 200 L188 158"/><g stroke="#EFE3D0" stroke-width="23" stroke-linecap="round" stroke-linejoin="round" fill="none"><path d="M184 164 L148 150"/><path d="M192 166 L226 188"/><path d="M178 198 L160 220 L150 236"/><path d="M182 198 L204 218 L214 236"/></g><circle cx="192" cy="144" r="18" fill="#EFE3D0"/><path fill="#241D18" stroke="#241D18" stroke-width="0" stroke-linejoin="round" d="M120 244 C152 234 210 233 240 240 C210 248 152 250 122 248 Z"/><path stroke="#241D18" stroke-width="24" stroke-linecap="round" fill="none" d="M178 200 L188 158"/><g stroke="#241D18" stroke-width="14" stroke-linecap="round" stroke-linejoin="round" fill="none"><path d="M184 164 L148 150"/><path d="M192 166 L226 188"/><path d="M178 198 L160 220 L150 236"/><path d="M182 198 L204 218 L214 236"/></g><circle cx="192" cy="144" r="13" fill="#241D18"/>
  <text x="38.4" y="190.5" font-size="30" fill="#241D18" font-family="Ultra" text-anchor="middle" dominant-baseline="central" transform="rotate(-94.25 38.4 190.5)">C</text>
<text x="40.3" y="154.7" font-size="30" fill="#241D18" font-family="Ultra" text-anchor="middle" dominant-baseline="central" transform="rotate(-79.75 40.3 154.7)">A</text>
<text x="51.0" y="120.6" font-size="30" fill="#241D18" font-family="Ultra" text-anchor="middle" dominant-baseline="central" transform="rotate(-65.25 51.0 120.6)">T</text>
<text x="70.0" y="90.2" font-size="30" fill="#241D18" font-family="Ultra" text-anchor="middle" dominant-baseline="central" transform="rotate(-50.75 70.0 90.2)">C</text>
<text x="96.0" y="65.5" font-size="30" fill="#241D18" font-family="Ultra" text-anchor="middle" dominant-baseline="central" transform="rotate(-36.25 96.0 65.5)">H</text>
<text x="162.1" y="39.1" font-size="30" fill="#241D18" font-family="Ultra" text-anchor="middle" dominant-baseline="central" transform="rotate(-7.25 162.1 39.1)">T</text>
<text x="197.9" y="39.1" font-size="30" fill="#241D18" font-family="Ultra" text-anchor="middle" dominant-baseline="central" transform="rotate(7.25 197.9 39.1)">H</text>
<text x="232.6" y="48.1" font-size="30" fill="#241D18" font-family="Ultra" text-anchor="middle" dominant-baseline="central" transform="rotate(21.75 232.6 48.1)">E</text>
<text x="290.0" y="90.2" font-size="30" fill="#241D18" font-family="Ultra" text-anchor="middle" dominant-baseline="central" transform="rotate(50.75 290.0 90.2)">T</text>
<text x="309.0" y="120.6" font-size="30" fill="#241D18" font-family="Ultra" text-anchor="middle" dominant-baseline="central" transform="rotate(65.25 309.0 120.6)">I</text>
<text x="319.7" y="154.7" font-size="30" fill="#241D18" font-family="Ultra" text-anchor="middle" dominant-baseline="central" transform="rotate(79.75 319.7 154.7)">D</text>
<text x="321.6" y="190.5" font-size="30" fill="#241D18" font-family="Ultra" text-anchor="middle" dominant-baseline="central" transform="rotate(94.25 321.6 190.5)">E</text>
  <text x="34.0" y="179.4" font-size="15" fill="#241D18" font-family="DM Sans" font-weight="700" text-anchor="middle" dominant-baseline="central" transform="rotate(90.25 34.0 179.4)">W</text>
<text x="35.9" y="203.5" font-size="15" fill="#241D18" font-family="DM Sans" font-weight="700" text-anchor="middle" dominant-baseline="central" transform="rotate(80.75 35.9 203.5)">E</text>
<text x="41.7" y="226.9" font-size="15" fill="#241D18" font-family="DM Sans" font-weight="700" text-anchor="middle" dominant-baseline="central" transform="rotate(71.25 41.7 226.9)">L</text>
<text x="51.4" y="249.1" font-size="15" fill="#241D18" font-family="DM Sans" font-weight="700" text-anchor="middle" dominant-baseline="central" transform="rotate(61.75 51.4 249.1)">I</text>
<text x="64.6" y="269.4" font-size="15" fill="#241D18" font-family="DM Sans" font-weight="700" text-anchor="middle" dominant-baseline="central" transform="rotate(52.25 64.6 269.4)">G</text>
<text x="80.9" y="287.2" font-size="15" fill="#241D18" font-family="DM Sans" font-weight="700" text-anchor="middle" dominant-baseline="central" transform="rotate(42.75 80.9 287.2)">A</text>
<text x="99.9" y="302.1" font-size="15" fill="#241D18" font-family="DM Sans" font-weight="700" text-anchor="middle" dominant-baseline="central" transform="rotate(33.25 99.9 302.1)">M</text>
<text x="121.2" y="313.6" font-size="15" fill="#241D18" font-family="DM Sans" font-weight="700" text-anchor="middle" dominant-baseline="central" transform="rotate(23.75 121.2 313.6)">A</text>
<text x="167.9" y="325.5" font-size="15" fill="#241D18" font-family="DM Sans" font-weight="700" text-anchor="middle" dominant-baseline="central" transform="rotate(4.75 167.9 325.5)">·</text>
<text x="215.9" y="321.5" font-size="15" fill="#241D18" font-family="DM Sans" font-weight="700" text-anchor="middle" dominant-baseline="central" transform="rotate(-14.25 215.9 321.5)">S</text>
<text x="238.8" y="313.6" font-size="15" fill="#241D18" font-family="DM Sans" font-weight="700" text-anchor="middle" dominant-baseline="central" transform="rotate(-23.75 238.8 313.6)">R</text>
<text x="260.1" y="302.1" font-size="15" fill="#241D18" font-family="DM Sans" font-weight="700" text-anchor="middle" dominant-baseline="central" transform="rotate(-33.25 260.1 302.1)">I</text>
<text x="295.4" y="269.4" font-size="15" fill="#241D18" font-family="DM Sans" font-weight="700" text-anchor="middle" dominant-baseline="central" transform="rotate(-52.25 295.4 269.4)">L</text>
<text x="308.6" y="249.1" font-size="15" fill="#241D18" font-family="DM Sans" font-weight="700" text-anchor="middle" dominant-baseline="central" transform="rotate(-61.75 308.6 249.1)">A</text>
<text x="318.3" y="226.9" font-size="15" fill="#241D18" font-family="DM Sans" font-weight="700" text-anchor="middle" dominant-baseline="central" transform="rotate(-71.25 318.3 226.9)">N</text>
<text x="324.1" y="203.5" font-size="15" fill="#241D18" font-family="DM Sans" font-weight="700" text-anchor="middle" dominant-baseline="central" transform="rotate(-80.75 324.1 203.5)">K</text>
<text x="326.0" y="179.4" font-size="15" fill="#241D18" font-family="DM Sans" font-weight="700" text-anchor="middle" dominant-baseline="central" transform="rotate(-90.25 326.0 179.4)">A</text>
</svg>