<svg xmlns="http://www.w3.org/2000/svg" viewBox="0 0 360 360">
<circle cx="180" cy="180" r="178" fill="#241D18"/>
<circle cx="180" cy="180" r="174" fill="#EFE3D0"/>
<circle cx="180" cy="180" r="164" fill="none" stroke="#241D18" stroke-width="2.5"/>
<!-- inner framed scene panel -->
<circle cx="180" cy="180" r="118" fill="#EFE3D0"/>
<circle cx="180" cy="180" r="118" fill="none" stroke="#241D18" stroke-width="3"/>
<!-- sun + rays inside panel -->
<path d="M 180.0 122.0 L 176.8 145.1 L 183.2 145.1 Z" fill="#C24A2C"/><path d="M 208.2 129.0 L 194.5 147.9 L 200.2 151.0 Z" fill="#C24A2C"/><path d="M 151.8 129.0 L 159.8 151.0 L 165.5 147.9 Z" fill="#C24A2C"/><path d="M 227.9 145.9 L 207.5 157.2 L 211.4 162.4 Z" fill="#C24A2C"/><path d="M 132.1 145.9 L 148.6 162.4 L 152.5 157.2 Z" fill="#C24A2C"/><path d="M 238.0 166.5 L 214.8 169.3 L 216.4 175.6 Z" fill="#C24A2C"/><path d="M 122.0 166.5 L 143.6 175.6 L 145.2 169.3 Z" fill="#C24A2C"/>
<circle cx="180" cy="182" r="30" fill="#C24A2C"/>
<circle cx="180" cy="182" r="30" fill="none" stroke="#241D18" stroke-width="2"/>
<!-- charcoal woodcut waves -->
<path d="M 56.0 212.0 C 63.8 202.6 79.2 202.6 87.0 212.0 C 94.8 202.6 110.2 202.6 118.0 212.0 C 125.8 202.6 141.2 202.6 149.0 212.0 C 156.8 202.6 172.2 202.6 180.0 212.0 C 187.8 202.6 203.2 202.6 211.0 212.0 C 218.8 202.6 234.2 202.6 242.0 212.0 C 249.8 202.6 265.2 202.6 273.0 212.0 C 280.8 202.6 296.2 202.6 304.0 212.0 L 304.0 221.0 C 296.2 211.6 280.8 211.6 273.0 221.0 C 265.2 211.6 249.8 211.6 242.0 221.0 C 234.2 211.6 218.8 211.6 211.0 221.0 C 203.2 211.6 187.8 211.6 180.0 221.0 C 172.2 211.6 156.8 211.6 149.0 221.0 C 141.2 211.6 125.8 211.6 118.0 221.0 C 110.2 211.6 94.8 211.6 87.0 221.0 C 79.2 211.6 63.8 211.6 56.0 221.0 Z" fill="#241D18"/><path d="M 50.0 228.0 C 57.2 217.2 71.7 217.2 78.9 228.0 C 86.1 217.2 100.6 217.2 107.8 228.0 C 115.0 217.2 129.4 217.2 136.7 228.0 C 143.9 217.2 158.3 217.2 165.6 228.0 C 172.8 217.2 187.2 217.2 194.4 228.0 C 201.7 217.2 216.1 217.2 223.3 228.0 C 230.6 217.2 245.0 217.2 252.2 228.0 C 259.4 217.2 273.9 217.2 281.1 228.0 C 288.3 217.2 302.8 217.2 310.0 228.0 L 310.0 238.0 C 302.8 227.2 288.3 227.2 281.1 238.0 C 273.9 227.2 259.4 227.2 252.2 238.0 C 245.0 227.2 230.6 227.2 223.3 238.0 C 216.1 227.2 201.7 227.2 194.4 238.0 C 187.2 227.2 172.8 227.2 165.6 238.0 C 158.3 227.2 143.9 227.2 136.7 238.0 C 129.4 227.2 115.0 227.2 107.8 238.0 C 100.6 227.2 86.1 227.2 78.9 238.0 C 71.7 227.2 57.2 227.2 50.0 238.0 Z" fill="#241D18"/><path d="M 56.0 246.0 C 64.9 235.2 82.6 235.2 91.4 246.0 C 100.3 235.2 118.0 235.2 126.9 246.0 C 135.7 235.2 153.4 235.2 162.3 246.0 C 171.1 235.2 188.9 235.2 197.7 246.0 C 206.6 235.2 224.3 235.2 233.1 246.0 C 242.0 235.2 259.7 235.2 268.6 246.0 C 277.4 235.2 295.1 235.2 304.0 246.0 L 304.0 257.0 C 295.1 246.2 277.4 246.2 268.6 257.0 C 259.7 246.2 242.0 246.2 233.1 257.0 C 224.3 246.2 206.6 246.2 197.7 257.0 C 188.9 246.2 171.1 246.2 162.3 257.0 C 153.4 246.2 135.7 246.2 126.9 257.0 C 118.0 246.2 100.3 246.2 91.4 257.0 C 82.6 246.2 64.9 246.2 56.0 257.0 Z" fill="#241D18"/>
<!-- arced golden hours -->
<text x="32.9" y="150.7" font-size="17" fill="#241D18" font-family="Ultra" text-anchor="middle" dominant-baseline="central" transform="rotate(101.25 32.9 150.7)">·</text>
<text x="35.6" y="220.7" font-size="17" fill="#241D18" font-family="Ultra" text-anchor="middle" dominant-baseline="central" transform="rotate(74.25 35.6 220.7)">G</text>
<text x="49.1" y="253.3" font-size="17" fill="#241D18" font-family="Ultra" text-anchor="middle" dominant-baseline="central" transform="rotate(60.75 49.1 253.3)">O</text>
<text x="69.9" y="281.8" font-size="17" fill="#241D18" font-family="Ultra" text-anchor="middle" dominant-baseline="central" transform="rotate(47.25 69.9 281.8)">L</text>
<text x="96.7" y="304.7" font-size="17" fill="#241D18" font-family="Ultra" text-anchor="middle" dominant-baseline="central" transform="rotate(33.75 96.7 304.7)">D</text>
<text x="128.1" y="320.7" font-size="17" fill="#241D18" font-family="Ultra" text-anchor="middle" dominant-baseline="central" transform="rotate(20.25 128.1 320.7)">E</text>
<text x="162.4" y="329.0" font-size="17" fill="#241D18" font-family="Ultra" text-anchor="middle" dominant-baseline="central" transform="rotate(6.75 162.4 329.0)">N</text>
<text x="231.9" y="320.7" font-size="17" fill="#241D18" font-family="Ultra" text-anchor="middle" dominant-baseline="central" transform="rotate(-20.25 231.9 320.7)">H</text>
<text x="263.3" y="304.7" font-size="17" fill="#241D18" font-family="Ultra" text-anchor="middle" dominant-baseline="central" transform="rotate(-33.75 263.3 304.7)">O</text>
<text x="290.1" y="281.8" font-size="17" fill="#241D18" font-family="Ultra" text-anchor="middle" dominant-baseline="central" transform="rotate(-47.25 290.1 281.8)">U</text>
<text x="310.9" y="253.3" font-size="17" fill="#241D18" font-family="Ultra" text-anchor="middle" dominant-baseline="central" transform="rotate(-60.75 310.9 253.3)">R</text>
<text x="324.4" y="220.7" font-size="17" fill="#241D18" font-family="Ultra" text-anchor="middle" dominant-baseline="central" transform="rotate(-74.25 324.4 220.7)">S</text>
<text x="327.1" y="150.7" font-size="17" fill="#241D18" font-family="Ultra" text-anchor="middle" dominant-baseline="central" transform="rotate(-101.25 327.1 150.7)">·</text>
<!-- top small star accents -->
<polygon points="180,40 181.6,46 187.6,46.2 182.8,50 184.4,56 180,52.2 175.6,56 177.2,50 172.4,46.2 178.4,46" fill="#241D18"/>
</svg>