<svg xmlns="http://www.w3.org/2000/svg" viewBox="0 0 64 64" fill="#241D18">
  <!-- TORSO + HEAD: one chunky mass, facing left -->
  <path d="M14 33
           C14 25 19 20 27 19
           C31 18 35 18 39 19
           C47 18 55 21 58 28
           C60 33 59 39 55 43
           C49 47 41 48 33 48
           C27 48 20 47 16 43
           C13 40 13 36 14 33 Z" />

  <!-- TRUNK: long, droops from front of head, tapering to tip -->
  <path d="M17 30
           C13 33 11 38 10 43
           C9 47 7 51 8 55
           C9 58 13 58 14 55
           C15 51 15 47 17 44
           C19 41 21 39 23 37
           C22 34 20 31 17 30 Z" />

  <!-- EAR: big rounded flap on the head -->
  <path d="M25 20
           C33 18 41 20 44 27
           C46 32 44 38 38 40
           C32 42 25 39 22 33
           C20 28 20 23 25 20 Z" />

  <!-- FRONT LEG (near) -->
  <path d="M22 44 L29 44 L29 57 C29 58 22 58 22 57 Z" />
  <!-- FRONT LEG (far) -->
  <path d="M31 45 L37 45 L37 56 C37 57 31 57 31 56 Z" />
  <!-- BACK LEG (far) -->
  <path d="M44 45 L50 45 L50 56 C50 57 44 57 44 56 Z" />
  <!-- BACK LEG (near) -->
  <path d="M52 43 L59 43 L59 57 C59 58 52 58 52 57 Z" />

  <!-- TAIL -->
  <path d="M58 30 C61 31 62 35 61 39 C60 41 58 41 58 39 C58 36 57 33 56 31 C56 30 57 29 58 30 Z" />

  <!-- ============ TERRACOTTA CARVED GOUGES ============ -->
  <!-- Tusk: short curved tusk under the eye, by the trunk -->
  <path fill="#C24A2C" d="M19 38
           C22 38 25 39 27 41
           C24 42 21 42 19 41
           C18 40 18 39 19 38 Z" />
  <!-- Eye -->
  <circle fill="#C24A2C" cx="22" cy="31" r="1.8" />
  <!-- Ear inner carved curve -->
  <path fill="#C24A2C" d="M28 24
           C34 23 39 25 41 29
           C38 30 34 30 31 28
           C29 27 28 26 28 24 Z" />
  <!-- Trunk gouge ridges -->
  <path fill="#C24A2C" d="M11 42
           C12 42 12 46 11 49
           C10 49 9 46 10 43
           C10 42 11 42 11 42 Z" />
  <path fill="#C24A2C" d="M16 36
           C17 37 16 40 15 42
           C14 41 14 38 15 36
           C15 36 16 36 16 36 Z" />
  <!-- Near front-leg gouge -->
  <path fill="#C24A2C" d="M25 48 C26 48 26 52 26 54 C25 54 24 52 24 49 C24 48 25 48 25 48 Z" />
  <!-- Near back-leg gouge -->
  <path fill="#C24A2C" d="M55 47 C56 47 56 51 56 53 C55 53 54 51 54 48 C54 47 55 47 55 47 Z" />
  <!-- Belly carve -->
  <path fill="#C24A2C" d="M40 44 C43 44 46 44 48 43 C46 45 43 46 40 46 C39 45 39 44 40 44 Z" />
</svg>
