<svg xmlns="http://www.w3.org/2000/svg" viewBox="0 0 64 64" fill="#241D18">
  <!-- head -->
  <ellipse cx="32" cy="9" rx="6" ry="7"/>
  <!-- front flippers -->
  <path d="M19 22 C9 13 2 14 3 21 C4 28 12 30 21 29 Z"/>
  <path d="M45 22 C55 13 62 14 61 21 C60 28 52 30 43 29 Z"/>
  <!-- rear flippers -->
  <path d="M22 46 C13 49 8 56 13 59 C18 61 24 55 26 48 Z"/>
  <path d="M42 46 C51 49 56 56 51 59 C46 61 40 55 38 48 Z"/>
  <!-- tail -->
  <path d="M32 52 L28 60 L36 60 Z"/>
  <!-- shell body -->
  <ellipse cx="32" cy="33" rx="17" ry="20"/>
  <!-- carved shell pattern (terracotta cut-outs) -->
  <g fill="#C24A2C">
    <!-- center spine ridges -->
    <path d="M30 16 L34 16 L33 28 L31 28 Z"/>
    <path d="M30 31 L34 31 L34 43 L30 43 Z"/>
    <path d="M31 46 L33 46 L32 52 L31 52 Z"/>
    <!-- left scutes -->
    <path d="M27 19 L20 22 L21 30 L28 28 Z"/>
    <path d="M27 32 L19 34 L20 43 L28 42 Z"/>
    <!-- right scutes -->
    <path d="M37 19 L44 22 L43 30 L36 28 Z"/>
    <path d="M37 32 L45 34 L44 43 L36 42 Z"/>
  </g>
</svg>
