<svg xmlns="http://www.w3.org/2000/svg" viewBox="0 0 360 360">
<circle cx="180" cy="180" r="178" fill="#241D18"/>
<circle cx="180" cy="180" r="175" fill="#C24A2C"/>
<circle cx="180" cy="180" r="156" fill="none" stroke="#241D18" stroke-width="3"/>
<circle cx="180" cy="180" r="150" fill="none" stroke="#241D18" stroke-width="1.5"/>
<text x="15.6" y="150.4" font-size="16" fill="#241D18" font-family="Ultra" font-weight="normal" text-anchor="middle" dominant-baseline="central" transform="rotate(-79.80 15.6 150.4)">T</text>
<text x="21.0" y="128.9" font-size="16" fill="#241D18" font-family="Ultra" font-weight="normal" text-anchor="middle" dominant-baseline="central" transform="rotate(-72.20 21.0 128.9)">U</text>
<text x="29.1" y="108.4" font-size="16" fill="#241D18" font-family="Ultra" font-weight="normal" text-anchor="middle" dominant-baseline="central" transform="rotate(-64.60 29.1 108.4)">K</text>
<text x="53.2" y="71.3" font-size="16" fill="#241D18" font-family="Ultra" font-weight="normal" text-anchor="middle" dominant-baseline="central" transform="rotate(-49.40 53.2 71.3)">·</text>
<text x="86.1" y="41.9" font-size="16" fill="#241D18" font-family="Ultra" font-weight="normal" text-anchor="middle" dominant-baseline="central" transform="rotate(-34.20 86.1 41.9)">T</text>
<text x="105.2" y="30.7" font-size="16" fill="#241D18" font-family="Ultra" font-weight="normal" text-anchor="middle" dominant-baseline="central" transform="rotate(-26.60 105.2 30.7)">I</text>
<text x="125.6" y="22.1" font-size="16" fill="#241D18" font-family="Ultra" font-weight="normal" text-anchor="middle" dominant-baseline="central" transform="rotate(-19.00 125.6 22.1)">D</text>
<text x="147.0" y="16.3" font-size="16" fill="#241D18" font-family="Ultra" font-weight="normal" text-anchor="middle" dominant-baseline="central" transform="rotate(-11.40 147.0 16.3)">E</text>
<text x="191.1" y="13.4" font-size="16" fill="#241D18" font-family="Ultra" font-weight="normal" text-anchor="middle" dominant-baseline="central" transform="rotate(3.80 191.1 13.4)">·</text>
<text x="234.4" y="22.1" font-size="16" fill="#241D18" font-family="Ultra" font-weight="normal" text-anchor="middle" dominant-baseline="central" transform="rotate(19.00 234.4 22.1)">S</text>
<text x="254.8" y="30.7" font-size="16" fill="#241D18" font-family="Ultra" font-weight="normal" text-anchor="middle" dominant-baseline="central" transform="rotate(26.60 254.8 30.7)">U</text>
<text x="273.9" y="41.9" font-size="16" fill="#241D18" font-family="Ultra" font-weight="normal" text-anchor="middle" dominant-baseline="central" transform="rotate(34.20 273.9 41.9)">R</text>
<text x="291.3" y="55.5" font-size="16" fill="#241D18" font-family="Ultra" font-weight="normal" text-anchor="middle" dominant-baseline="central" transform="rotate(41.80 291.3 55.5)">F</text>
<text x="320.1" y="89.0" font-size="16" fill="#241D18" font-family="Ultra" font-weight="normal" text-anchor="middle" dominant-baseline="central" transform="rotate(57.00 320.1 89.0)">C</text>
<text x="330.9" y="108.4" font-size="16" fill="#241D18" font-family="Ultra" font-weight="normal" text-anchor="middle" dominant-baseline="central" transform="rotate(64.60 330.9 108.4)">L</text>
<text x="339.0" y="128.9" font-size="16" fill="#241D18" font-family="Ultra" font-weight="normal" text-anchor="middle" dominant-baseline="central" transform="rotate(72.20 339.0 128.9)">U</text>
<text x="344.4" y="150.4" font-size="16" fill="#241D18" font-family="Ultra" font-weight="normal" text-anchor="middle" dominant-baseline="central" transform="rotate(79.80 344.4 150.4)">B</text>
<text x="16.7" y="215.0" font-size="16" fill="#241D18" font-family="Ultra" font-weight="normal" text-anchor="middle" dominant-baseline="central" transform="rotate(77.90 16.7 215.0)">W</text>
<text x="23.4" y="237.9" font-size="16" fill="#241D18" font-family="Ultra" font-weight="normal" text-anchor="middle" dominant-baseline="central" transform="rotate(69.70 23.4 237.9)">E</text>
<text x="33.2" y="259.7" font-size="16" fill="#241D18" font-family="Ultra" font-weight="normal" text-anchor="middle" dominant-baseline="central" transform="rotate(61.50 33.2 259.7)">L</text>
<text x="46.1" y="279.8" font-size="16" fill="#241D18" font-family="Ultra" font-weight="normal" text-anchor="middle" dominant-baseline="central" transform="rotate(53.30 46.1 279.8)">I</text>
<text x="61.7" y="297.9" font-size="16" fill="#241D18" font-family="Ultra" font-weight="normal" text-anchor="middle" dominant-baseline="central" transform="rotate(45.10 61.7 297.9)">G</text>
<text x="79.7" y="313.5" font-size="16" fill="#241D18" font-family="Ultra" font-weight="normal" text-anchor="middle" dominant-baseline="central" transform="rotate(36.90 79.7 313.5)">A</text>
<text x="99.8" y="326.5" font-size="16" fill="#241D18" font-family="Ultra" font-weight="normal" text-anchor="middle" dominant-baseline="central" transform="rotate(28.70 99.8 326.5)">M</text>
<text x="121.5" y="336.4" font-size="16" fill="#241D18" font-family="Ultra" font-weight="normal" text-anchor="middle" dominant-baseline="central" transform="rotate(20.50 121.5 336.4)">A</text>
<text x="168.1" y="346.6" font-size="16" fill="#241D18" font-family="Ultra" font-weight="normal" text-anchor="middle" dominant-baseline="central" transform="rotate(4.10 168.1 346.6)">·</text>
<text x="215.6" y="343.2" font-size="16" fill="#241D18" font-family="Ultra" font-weight="normal" text-anchor="middle" dominant-baseline="central" transform="rotate(-12.30 215.6 343.2)">S</text>
<text x="238.5" y="336.4" font-size="16" fill="#241D18" font-family="Ultra" font-weight="normal" text-anchor="middle" dominant-baseline="central" transform="rotate(-20.50 238.5 336.4)">R</text>
<text x="260.2" y="326.5" font-size="16" fill="#241D18" font-family="Ultra" font-weight="normal" text-anchor="middle" dominant-baseline="central" transform="rotate(-28.70 260.2 326.5)">I</text>
<text x="298.3" y="297.9" font-size="16" fill="#241D18" font-family="Ultra" font-weight="normal" text-anchor="middle" dominant-baseline="central" transform="rotate(-45.10 298.3 297.9)">L</text>
<text x="313.9" y="279.8" font-size="16" fill="#241D18" font-family="Ultra" font-weight="normal" text-anchor="middle" dominant-baseline="central" transform="rotate(-53.30 313.9 279.8)">A</text>
<text x="326.8" y="259.7" font-size="16" fill="#241D18" font-family="Ultra" font-weight="normal" text-anchor="middle" dominant-baseline="central" transform="rotate(-61.50 326.8 259.7)">N</text>
<text x="336.6" y="237.9" font-size="16" fill="#241D18" font-family="Ultra" font-weight="normal" text-anchor="middle" dominant-baseline="central" transform="rotate(-69.70 336.6 237.9)">K</text>
<text x="343.3" y="215.0" font-size="16" fill="#241D18" font-family="Ultra" font-weight="normal" text-anchor="middle" dominant-baseline="central" transform="rotate(-77.90 343.3 215.0)">A</text>
<polygon points="13.0,175.0 14.2,178.3 17.8,178.5 15.0,180.6 15.9,184.0 13.0,182.1 10.1,184.0 11.0,180.6 8.2,178.5 11.8,178.3" fill="#241D18"/><polygon points="347.0,175.0 348.2,178.3 351.8,178.5 349.0,180.6 349.9,184.0 347.0,182.1 344.1,184.0 345.0,180.6 342.2,178.5 345.8,178.3" fill="#241D18"/>
<g transform="translate(110.4,132.9) scale(0.08)"><g transform="translate(0.000000,1178.000000) scale(0.100000,-0.100000)"
fill="#241D18" stroke="none">
<path d="M2600 11765 c-7 -8 -31 -18 -53 -22 -34 -5 -56 -21 -135 -100 -53
-52 -121 -111 -151 -131 -31 -20 -91 -62 -134 -94 -74 -55 -313 -179 -407
-212 -25 -9 -78 -21 -119 -26 -41 -5 -87 -18 -104 -27 -30 -18 -64 -73 -106
-173 -106 -249 -328 -624 -522 -877 -83 -109 -96 -130 -109 -172 -23 -75 -59
-204 -74 -266 -9 -38 -23 -95 -31 -125 -23 -88 -72 -298 -89 -380 -8 -41 -22
-109 -31 -150 -13 -67 -36 -185 -66 -350 -5 -30 -14 -86 -19 -125 -15 -112
-29 -215 -40 -280 -13 -81 -46 -330 -65 -495 -9 -74 -20 -171 -25 -215 -5 -44
-12 -107 -15 -140 -3 -33 -10 -96 -16 -140 -15 -128 -39 -508 -39 -628 0 -61
5 -138 11 -173 l11 -62 296 -7 c163 -4 1150 -5 2192 -1 l1895 7 30 -31 29 -30
-25 -25 -24 -25 -2110 -3 c-2217 -3 -2184 -2 -2186 -45 0 -9 -1 -285 -2 -612
l-2 -595 -23 -45 c-12 -25 -40 -70 -62 -100 -42 -60 -109 -188 -135 -260 -35
-96 -73 -238 -96 -354 -10 -54 -25 -107 -34 -116 -19 -21 -19 -74 -1 -90 8 -6
22 -34 31 -61 19 -55 32 -65 107 -79 93 -18 88 3 88 -371 l0 -327 -33 -26
c-83 -65 -136 -113 -146 -134 -6 -13 -11 -74 -11 -142 l0 -120 63 -60 62 -60
76 0 c66 0 78 -3 97 -23 17 -18 21 -31 16 -55 -9 -43 3 -99 27 -123 16 -16 33
-19 102 -19 78 0 85 -2 111 -29 l27 -28 -3 -489 c-3 -518 1 -599 32 -609 42
-13 269 112 281 155 4 14 7 233 8 486 1 440 2 462 20 486 21 26 52 41 176 83
107 36 148 44 221 45 47 0 65 -4 77 -18 10 -10 17 -23 17 -29 0 -6 -26 -44
-58 -84 -66 -84 -118 -167 -157 -254 -15 -33 -32 -69 -38 -79 -34 -67 -76
-252 -93 -405 -17 -153 -17 -160 4 -316 26 -196 76 -377 142 -507 79 -155 157
-264 270 -374 233 -230 519 -364 868 -408 154 -20 180 -20 334 0 332 42 588
160 823 378 261 241 417 569 451 943 12 126 31 140 344 237 80 24 156 47 170
51 100 26 446 141 560 185 30 12 82 31 115 43 l60 22 4211 2 c3783 3 4213 2
4224 -12 22 -27 13 -71 -31 -142 -84 -137 -101 -168 -121 -217 -26 -67 -18
-103 38 -165 58 -65 92 -68 155 -15 48 40 67 40 128 -2 45 -30 66 -30 116 1
49 30 79 31 130 5 22 -11 47 -20 57 -20 26 0 47 40 58 108 6 33 21 98 34 144
13 46 31 112 39 148 79 323 121 484 136 521 14 35 78 92 146 129 33 18 71 41
84 51 27 22 52 24 69 7 22 -22 12 -42 -58 -126 -115 -136 -186 -278 -244 -484
-52 -183 -70 -466 -42 -639 58 -353 272 -710 550 -918 211 -158 459 -258 715
-287 79 -9 131 -20 141 -29 21 -19 69 -19 90 0 9 8 56 19 115 25 330 36 674
209 899 452 110 117 200 264 287 463 5 11 20 61 35 110 62 217 82 475 45 590
-11 33 -27 96 -36 140 -28 134 -48 193 -118 345 -14 30 -30 74 -36 97 -13 49
-134 206 -227 294 -70 66 -167 142 -247 193 -64 40 -77 60 -54 83 13 14 26 14
99 3 45 -6 101 -15 123 -20 22 -5 76 -16 120 -26 44 -9 102 -23 128 -30 27 -7
67 -11 91 -8 23 4 59 1 81 -5 21 -6 49 -8 62 -5 20 5 23 13 23 50 0 24 -6 58
-14 76 -7 18 -21 58 -31 88 -23 74 -45 128 -71 170 -11 19 -24 52 -28 73 -4
21 -19 65 -33 98 l-26 60 22 23 c14 15 40 27 69 31 90 13 98 25 112 165 8 70
21 126 44 188 18 48 37 106 41 129 3 23 15 53 26 67 24 31 24 51 0 82 -11 14
-23 44 -26 67 -8 48 -37 127 -62 172 -13 22 -19 65 -23 157 -7 170 1 163 -188
163 -256 0 -646 -68 -857 -149 -250 -97 -405 -206 -459 -323 -14 -28 -33 -56
-45 -62 -34 -18 -106 -14 -125 8 -17 19 -17 24 9 118 15 54 31 109 36 123 22
61 39 275 39 508 0 227 -6 345 -31 582 -24 238 -31 292 -49 397 -11 61 -20
144 -20 185 0 74 19 304 41 498 7 58 12 200 12 315 1 193 -1 216 -22 280 -20
61 -99 223 -171 350 -40 70 -116 208 -155 280 -21 39 -78 141 -127 228 -48 87
-88 160 -88 162 0 2 -20 39 -45 81 -25 41 -45 77 -45 79 0 2 -27 51 -60 109
-33 58 -60 108 -60 112 0 3 -20 37 -45 75 -25 38 -61 100 -81 137 -39 71 -74
131 -161 277 -30 50 -85 142 -122 205 -37 63 -95 158 -129 210 -34 52 -71 115
-83 140 -18 36 -173 299 -239 405 -8 13 -55 88 -103 167 -48 79 -102 166 -119
193 -353 567 -408 658 -408 679 0 13 71 86 83 86 4 0 26 12 50 27 23 15 56 35
72 44 45 24 44 53 -2 82 -47 30 -195 101 -248 120 -37 13 -225 88 -270 107
-11 5 -49 21 -85 36 -36 14 -103 46 -150 70 -47 23 -98 48 -115 55 -20 8 -161
14 -420 20 -948 20 -1559 37 -2085 60 -135 6 -344 14 -465 19 -208 9 -356 17
-715 41 -438 28 -496 30 -738 19 -136 -5 -366 -14 -512 -20 -146 -5 -420 -15
-610 -22 -518 -19 -1428 -16 -1720 5 -129 9 -271 23 -315 29 -49 8 -181 12
-340 11 -1799 -7 -2066 -3 -2105 32 -21 19 -64 19 -80 0z m10808 -569 c38 -20
75 -62 69 -79 -3 -8 -39 -32 -80 -55 -77 -41 -201 -120 -441 -279 -184 -122
-206 -122 -206 2 0 69 1 72 38 107 49 47 541 318 578 318 8 0 27 -6 42 -14z
m-97 -408 c17 -13 47 -52 67 -88 31 -56 194 -321 324 -528 24 -37 35 -56 101
-169 32 -54 89 -147 128 -208 38 -60 72 -117 76 -125 9 -21 78 -134 119 -197
19 -28 34 -54 34 -58 0 -3 14 -26 30 -50 17 -24 42 -68 56 -97 15 -29 94 -165
176 -303 82 -137 153 -257 158 -265 4 -8 28 -49 53 -90 24 -41 63 -106 84
-145 22 -38 73 -124 113 -190 40 -66 99 -165 130 -220 31 -55 76 -133 99 -173
23 -41 41 -81 39 -89 -7 -36 -51 -53 -158 -63 -152 -14 -469 -12 -750 5 -249
14 -367 31 -443 64 -60 27 -131 104 -165 181 -103 230 -234 946 -287 1570 -32
379 -56 756 -62 978 l-6 232 23 25 c13 14 25 25 27 25 2 0 18 -10 34 -22z
m-162 -85 c19 -16 21 -35 30 -193 22 -376 33 -552 46 -725 12 -153 12 -183 0
-201 -23 -36 -130 -47 -157 -16 -11 12 -17 46 -20 117 -5 112 -21 156 -84 235
l-37 45 6 175 c7 215 32 367 76 460 17 36 94 120 110 120 5 0 18 -8 30 -17z
m-289 -98 c14 -17 10 -61 -14 -170 -9 -38 -21 -146 -26 -240 -13 -216 -5 -205
-172 -214 -183 -10 -251 -47 -304 -166 -16 -37 -17 -88 -17 -670 1 -686 0
-673 58 -749 63 -83 229 -126 392 -101 48 7 106 21 127 30 38 16 39 16 63 -7
28 -28 47 -129 63 -343 23 -311 30 -384 46 -484 12 -80 14 -113 5 -140 -12
-41 -69 -100 -151 -157 -84 -57 -233 -189 -252 -222 -23 -39 -23 -69 2 -110
56 -91 179 -63 322 74 36 35 73 64 80 64 8 0 23 -9 33 -20 28 -31 12 -64 -70
-145 -77 -77 -101 -113 -105 -155 -5 -52 -1 -62 22 -58 17 2 27 16 41 53 21
58 69 108 100 103 41 -6 46 -37 36 -263 -4 -115 -13 -361 -19 -545 -5 -184
-14 -443 -20 -575 -6 -132 -15 -370 -20 -530 -28 -817 -36 -959 -72 -1270 -29
-258 -62 -410 -104 -476 l-24 -39 -708 -2 c-389 -2 -726 -2 -750 -2 -30 0 -49
7 -65 22 l-22 23 0 793 0 794 23 25 c22 23 32 25 132 29 71 2 114 8 122 16 18
18 23 194 8 309 -11 93 -40 175 -77 220 -10 12 -40 34 -68 50 l-50 28 -1207 5
c-1141 5 -1208 6 -1225 23 -16 15 -19 44 -23 226 -4 148 -9 213 -18 224 -9 11
-37 16 -102 19 -116 4 -142 21 -152 99 -11 74 -7 730 4 752 17 34 56 49 155
57 148 13 212 48 247 134 15 35 17 98 17 492 0 507 0 513 -65 575 -56 55 -91
68 -204 77 -157 14 -148 1 -157 244 -4 112 -5 652 -3 1201 l3 999 24 19 c23
19 69 19 2002 19 1526 0 1984 3 2006 12 15 7 41 23 56 35 33 27 59 29 77 8z
m-4361 -81 c21 -27 21 -28 21 -1172 l0 -1145 -42 -39 -43 -40 0 -83 0 -83 43
-40 42 -39 0 -433 0 -432 -42 -39 -43 -39 1 -80 1 -80 42 -36 42 -36 -4 -1702
c-3 -1533 -5 -1709 -19 -1782 -43 -209 -134 -341 -290 -420 -27 -14 -90 -33
-141 -44 -113 -22 -506 -45 -632 -35 -49 3 -214 10 -365 15 -296 9 -315 12
-431 70 -179 90 -326 228 -397 372 -61 125 -101 284 -122 488 -6 52 -19 183
-30 290 -23 212 -46 458 -56 585 -7 95 -31 190 -52 207 -11 9 -53 12 -150 10
-187 -3 -198 6 -221 183 -7 50 -18 128 -26 175 -7 47 -21 148 -30 225 -21 177
-53 379 -67 425 -43 140 -66 178 -183 296 -87 88 -151 127 -271 164 -39 11
-85 33 -102 48 -30 26 -32 32 -41 132 -11 132 -8 3084 4 3240 11 159 12 160
182 160 70 0 133 4 138 8 6 4 23 26 38 49 15 23 40 49 57 58 l30 16 0 112 c0
136 -3 148 -41 169 -32 19 -37 39 -15 58 19 15 121 36 221 45 44 4 107 11 140
16 33 4 119 13 190 19 342 27 506 44 720 75 260 37 267 38 870 70 154 8 350
19 435 25 212 14 259 16 452 18 l167 2 20 -26z m-5626 -34 c33 -26 44 -83 22
-116 -12 -18 -24 -24 -53 -24 -81 0 -104 81 -40 135 36 30 39 30 71 5z m1886
-16 c45 -57 17 -124 -50 -124 -51 0 -82 36 -69 82 21 70 80 91 119 42z m3871
-69 c11 -13 12 -105 7 -458 -9 -554 -9 -1394 0 -2847 6 -1062 5 -1136 -11
-1149 -15 -12 -19 -12 -34 3 -12 12 -17 33 -16 79 0 34 0 994 1 2132 0 1139 1
2106 2 2150 3 97 20 127 51 90z m-6333 -227 c21 -19 23 -31 23 -106 0 -116
-32 -152 -87 -100 -18 16 -23 32 -23 67 1 62 15 118 36 142 21 24 23 24 51 -3z
m3023 -28 c17 -32 13 -151 -7 -172 -20 -22 -41 -23 -65 -1 -28 25 -26 158 3
189 24 26 50 20 69 -16z m-292 -116 c31 -20 26 -60 -11 -88 -28 -21 -31 -21
-1013 -24 l-985 -2 -30 29 c-33 33 -37 62 -13 82 26 21 189 24 1154 21 764 -2
878 -5 898 -18z m-2126 -14 l33 -30 -37 -35 c-37 -34 -39 -35 -124 -35 -82 0
-87 1 -115 30 -25 24 -28 33 -19 49 21 41 50 51 142 51 83 0 89 -1 120 -30z
m9770 -137 c16 -14 18 -35 18 -205 l0 -188 -30 -41 c-39 -55 -60 -131 -60
-224 0 -90 19 -164 60 -228 l29 -46 2 -265 c3 -246 2 -266 -16 -285 -29 -33
-107 -29 -171 8 -96 55 -89 0 -92 711 -2 547 -1 630 13 666 27 72 90 113 174
114 37 0 60 -5 73 -17z m-7985 -97 l28 -24 0 -1584 c0 -870 -4 -1600 -8 -1621
-15 -71 -3 -69 -507 -70 l-450 -1 -24 24 c-21 23 -106 268 -162 465 -9 33 -22
76 -29 95 -7 19 -28 76 -46 125 -17 50 -51 128 -74 175 -24 47 -53 108 -65
135 -45 104 -73 162 -108 230 -36 69 -36 71 -33 181 3 158 -28 235 -133 332
-56 51 -106 77 -182 93 -55 11 -69 10 -145 -10 -132 -35 -151 -36 -174 -11
-19 21 -20 37 -20 414 0 773 10 910 71 1008 47 74 -41 68 1051 68 l982 0 28
-24z m132 -40 c9 -10 12 -435 13 -1696 1 -1542 -1 -1683 -16 -1698 -14 -15
-18 -15 -31 -1 -14 14 -16 198 -16 1698 0 1260 3 1687 12 1697 14 18 24 18 38
0z m8374 -255 c14 -5 35 -24 47 -41 19 -27 24 -57 41 -258 10 -125 26 -270 34
-322 54 -337 74 -439 112 -595 62 -253 135 -426 207 -490 19 -17 59 -38 88
-47 171 -53 567 -74 1071 -57 l348 12 28 -27 c15 -15 37 -46 48 -69 11 -23 26
-55 34 -72 8 -16 43 -81 79 -142 36 -62 77 -134 92 -160 15 -27 28 -55 28 -64
0 -26 -42 -57 -85 -62 -22 -2 -107 -12 -190 -21 -82 -9 -193 -21 -245 -28 -70
-10 -302 -13 -868 -13 l-772 1 -26 26 c-30 30 -38 64 -59 258 -35 315 -45 402
-59 520 -9 69 -20 168 -26 220 -6 52 -17 149 -25 215 -33 283 -40 410 -40 776
0 419 -3 398 68 433 38 19 39 19 70 7z m-12409 -942 c36 -43 32 -72 -17 -126
-26 -30 -48 -29 -76 1 -27 29 -24 69 9 124 25 40 51 41 84 1z m-45 -256 l22
-18 -20 -165 c-11 -91 -31 -259 -45 -375 -14 -115 -32 -339 -39 -497 -16 -311
-20 -331 -73 -344 -19 -5 -31 -1 -46 14 -18 18 -20 32 -20 133 1 122 12 272
43 574 33 330 48 456 75 632 5 33 36 63 65 63 9 0 26 -8 38 -17z m2153 -17
c68 -17 110 -41 159 -93 86 -90 124 -227 84 -302 -8 -16 -17 -48 -21 -71 -7
-40 -5 -43 40 -83 50 -46 97 -134 195 -367 29 -69 59 -138 66 -155 7 -16 28
-68 45 -115 17 -47 38 -102 46 -122 36 -96 44 -119 73 -213 17 -55 36 -126 42
-158 12 -57 11 -59 -14 -85 l-26 -26 -340 0 c-339 -1 -339 -1 -363 22 -27 25
-49 77 -101 237 -45 138 -81 236 -146 396 -28 70 -55 151 -60 180 -12 71 -22
731 -11 787 13 71 97 144 195 167 66 17 70 17 137 1z m6031 -277 c47 -13 102
-60 128 -110 18 -36 19 -62 19 -458 0 -409 -1 -422 -21 -461 -63 -121 -252
-177 -328 -96 l-22 24 -2 532 -1 532 27 24 c24 20 39 24 95 24 37 0 84 -5 105
-11z m6556 -943 c19 -20 21 -28 12 -45 -6 -11 -19 -25 -29 -29 -38 -21 -264
-43 -627 -61 -509 -27 -685 -32 -1075 -33 -457 -1 -483 2 -510 51 -9 18 -7 25
13 45 l24 24 779 5 c717 5 794 7 969 27 402 46 416 46 444 16z m-12798 -203
c15 -48 43 -133 63 -188 20 -55 36 -109 36 -121 0 -34 -33 -55 -97 -61 -53 -5
-62 -3 -88 20 l-29 25 -8 173 c-9 191 -5 255 20 282 15 17 17 16 46 -12 21
-21 38 -57 57 -118z m12821 40 c9 -10 19 -37 23 -59 7 -43 -8 -353 -26 -549
-6 -60 -14 -159 -19 -219 -12 -149 -21 -206 -80 -536 -64 -353 -173 -776 -322
-1245 -33 -104 -66 -206 -73 -225 -8 -19 -30 -78 -50 -130 -20 -52 -57 -138
-82 -190 -25 -52 -65 -138 -89 -190 -24 -52 -58 -121 -75 -153 -31 -61 -46
-85 -226 -367 -57 -91 -109 -174 -114 -185 -22 -49 -154 -223 -270 -356 -183
-209 -339 -356 -424 -399 -38 -20 -60 -20 -1141 -20 -1002 0 -1103 1 -1115 16
-11 14 -10 20 14 40 16 13 38 26 50 28 485 97 465 91 842 216 282 93 297 100
380 162 77 58 136 138 213 293 67 134 141 383 162 545 5 41 14 95 19 120 42
197 68 609 101 1570 5 157 14 377 20 490 12 263 21 627 22 950 1 258 5 294 40
317 7 4 238 9 513 9 298 1 625 8 810 18 407 21 444 23 615 45 197 25 263 26
282 4z m-11282 -703 c552 -7 600 -10 660 -28 160 -49 296 -122 372 -199 59
-60 119 -185 147 -308 12 -49 33 -178 47 -285 14 -107 32 -240 40 -295 38
-264 38 -268 15 -318 -23 -50 -17 -89 14 -101 9 -3 94 -6 189 -6 232 0 217 16
241 -265 9 -99 20 -236 25 -305 49 -653 105 -888 258 -1090 107 -142 269 -261
421 -310 131 -43 244 -50 774 -50 597 0 729 10 834 62 139 68 277 237 327 398
39 130 39 126 45 1402 l6 1247 22 22 c18 18 34 23 86 23 69 1 92 -10 109 -54
7 -16 10 -223 9 -567 -2 -475 0 -546 14 -573 l16 -30 350 0 350 0 24 -25 c14
-13 25 -32 25 -42 -1 -10 1 -389 4 -843 5 -817 4 -825 -16 -868 -13 -27 -36
-53 -60 -68 -22 -14 -78 -59 -125 -101 -46 -41 -98 -79 -116 -84 -17 -5 -250
-9 -517 -9 -558 0 -1753 -15 -2330 -31 -217 -6 -694 -13 -1060 -16 l-665 -6
-32 27 c-18 15 -35 41 -38 59 -4 17 -18 64 -30 102 -116 352 -211 544 -386
780 -214 288 -615 547 -989 638 -315 76 -367 82 -775 82 -328 -1 -371 -3 -489
-23 -158 -28 -254 -51 -424 -101 -102 -30 -338 -170 -478 -283 -163 -132 -373
-428 -457 -643 -8 -22 -24 -62 -35 -90 -11 -27 -32 -88 -47 -135 -14 -47 -33
-96 -42 -109 l-15 -23 -22 21 -21 22 3 1682 c3 1454 6 1684 18 1697 13 13 175
16 1302 20 708 3 1409 6 1557 7 149 0 538 -2 865 -7z m7136 -863 c70 -12 124
-44 161 -100 37 -56 51 -114 60 -254 6 -103 6 -104 -21 -132 l-27 -28 -1022
-6 c-562 -4 -1127 -3 -1256 2 -234 9 -234 9 -260 35 l-26 26 0 209 c0 189 2
211 19 229 10 12 28 22 40 24 49 7 2285 2 2332 -5z m-143 -598 l27 -30 -2
-789 c-3 -788 -3 -789 -24 -811 -21 -21 -22 -21 -720 -20 l-699 0 -22 26 -23
26 0 747 c0 411 -4 752 -8 759 -5 8 -107 12 -364 15 l-358 3 -27 28 c-22 22
-26 31 -17 45 27 42 9 42 1134 36 l1075 -6 28 -29z m-10843 -39 c12 -23 3 -45
-29 -74 -21 -19 -22 -19 -46 4 -31 30 -31 41 1 79 21 25 29 29 45 21 10 -6 23
-19 29 -30z m-32 -133 c46 -49 37 -200 -13 -233 -38 -25 -90 -22 -120 6 -32
30 -32 59 0 140 41 106 87 136 133 87z m-7 -306 c25 -25 29 -37 29 -84 0 -82
-24 -107 -100 -107 -51 0 -61 3 -79 26 -28 36 -29 117 -1 162 18 29 24 32 71
32 43 0 55 -5 80 -29z m17019 -286 c0 -75 -3 -87 -24 -112 -20 -23 -28 -26
-43 -17 -15 10 -18 28 -21 124 -2 96 0 116 15 132 17 19 18 19 45 -11 26 -29
28 -38 28 -116z m-14375 115 c218 -38 397 -93 575 -177 41 -20 91 -42 110 -50
98 -42 327 -218 450 -346 187 -195 363 -498 463 -797 60 -181 61 -183 36 -214
l-20 -26 -228 0 c-179 0 -237 3 -273 15 -86 30 -203 158 -282 309 -110 212
-200 327 -290 373 -110 57 -102 56 -875 60 -753 4 -796 2 -921 -41 -143 -50
-230 -126 -391 -341 -117 -157 -157 -195 -235 -226 -53 -21 -79 -23 -262 -27
-238 -4 -252 -1 -252 69 0 46 27 159 41 174 5 5 9 15 9 23 0 20 97 244 148
342 79 150 188 297 317 425 262 261 558 397 997 455 121 16 194 18 478 16 205
-2 362 -8 405 -16z m12578 -152 c16 -9 90 -13 252 -14 198 0 241 -3 310 -21
204 -52 310 -100 456 -204 201 -143 346 -315 483 -574 27 -49 56 -99 66 -110
25 -27 50 -91 50 -126 0 -38 -41 -67 -73 -51 -12 6 -69 18 -127 27 -119 18
-333 55 -470 81 -71 13 -104 55 -155 199 -46 131 -165 346 -228 413 -21 21
-40 32 -59 32 -46 0 -35 -42 33 -115 67 -74 219 -374 219 -433 0 -68 -4 -69
-285 -75 -137 -3 -288 -11 -335 -17 -76 -10 -326 -69 -390 -91 -14 -5 -54 -13
-90 -19 -60 -9 -66 -8 -88 13 -22 20 -23 27 -17 82 10 94 30 175 85 350 66
212 184 352 345 410 62 23 75 32 75 56 0 16 -8 19 -48 19 -94 0 -239 -98 -315
-212 -88 -134 -176 -404 -197 -605 -15 -146 -33 -169 -185 -233 -224 -95 -319
-142 -404 -202 -43 -30 -63 -38 -99 -38 -46 0 -82 20 -82 46 0 8 26 44 58 81
32 38 88 113 125 168 36 55 79 118 95 140 84 117 379 675 397 750 9 40 49 91
86 110 30 16 103 39 214 68 33 8 79 20 102 26 22 6 63 27 90 46 52 37 73 41
106 23z m-15207 -59 c18 -20 19 -40 19 -331 l0 -310 -24 -19 c-21 -17 -26 -18
-45 -6 -21 14 -21 22 -24 332 -2 285 -1 320 14 337 22 23 37 23 60 -3z m-26
-749 c16 -11 34 -37 41 -58 16 -46 16 -183 0 -239 -20 -74 -85 -96 -134 -45
-27 28 -27 30 -27 161 l0 133 34 34 c40 40 48 41 86 14z m-192 -72 c8 -8 12
-46 12 -103 0 -78 -3 -95 -19 -109 -19 -17 -20 -17 -34 6 -10 16 -14 47 -12
105 3 97 21 133 53 101z m12659 -114 c35 -22 28 -57 -27 -143 -89 -139 -185
-211 -305 -231 -27 -4 -408 -11 -845 -14 -437 -3 -1055 -9 -1373 -12 -543 -6
-579 -5 -598 11 -10 10 -19 26 -19 36 0 17 84 99 101 99 23 0 42 68 43 148 1
77 3 86 26 105 l25 22 1475 -3 c1284 -2 1478 -5 1497 -18z m2624 -231 c47 -52
69 -95 69 -136 0 -42 -31 -72 -117 -113 -32 -15 -74 -37 -94 -50 -20 -12 -55
-28 -78 -35 -39 -12 -43 -11 -69 14 -15 15 -43 56 -62 93 -32 63 -33 67 -18
92 27 46 248 171 303 172 23 0 40 -10 66 -37z m-11554 -215 c104 -96 147 -114
306 -129 148 -14 387 -12 3622 31 1194 15 1826 20 2991 23 1143 2 1120 3 1077
-46 -32 -36 -58 -43 -368 -103 -44 -8 -109 -21 -145 -29 -213 -45 -557 -91
-895 -120 -364 -30 -760 -35 -2924 -35 -1946 0 -2179 2 -2199 15 -12 9 -40 47
-63 86 -55 92 -66 99 -160 99 -70 0 -99 -8 -330 -86 -140 -47 -267 -90 -284
-95 -16 -5 -39 -13 -50 -18 -11 -6 -49 -19 -85 -30 -36 -11 -125 -41 -199 -66
-134 -46 -135 -46 -160 -28 -26 20 -32 29 -55 83 -92 219 -145 314 -220 399
-76 85 -71 121 15 121 47 0 53 -3 126 -72z m-1128 -134 c98 -18 247 -83 326
-143 172 -131 284 -287 351 -492 26 -78 28 -96 27 -244 0 -126 -3 -168 -16
-199 -10 -21 -17 -45 -17 -52 0 -8 -20 -56 -45 -106 -127 -260 -383 -455 -655
-498 -315 -49 -614 65 -820 313 -76 92 -162 264 -186 372 -37 171 -14 373 59
526 63 128 87 167 155 241 110 118 234 200 397 261 101 38 283 47 424 21z
m13331 -25 c83 -26 215 -97 307 -166 102 -77 223 -243 279 -384 85 -216 69
-460 -44 -674 -14 -27 -57 -91 -94 -141 -124 -167 -254 -256 -461 -316 -99
-29 -339 -32 -442 -5 -252 65 -495 285 -598 542 -47 116 -50 131 -54 265 -4
115 -2 148 17 225 12 49 33 114 47 144 31 64 101 141 130 141 23 0 83 -62 83
-85 0 -8 -15 -49 -34 -92 -57 -133 -60 -148 -61 -303 0 -165 11 -213 78 -338
67 -125 170 -220 315 -292 175 -86 421 -86 592 0 96 48 220 140 255 189 95
130 145 287 145 450 0 210 -72 387 -209 513 -88 82 -180 126 -355 169 -61 16
-116 61 -116 97 0 14 12 38 27 54 22 24 35 28 77 28 28 0 80 -9 116 -21z
m-10945 -219 c17 -19 17 -21 0 -40 -29 -32 -75 -20 -75 20 0 40 46 52 75 20z
m11309 -319 c35 -36 49 -94 33 -132 -14 -31 -125 -134 -157 -144 -34 -11 -66
18 -79 72 -7 26 -23 69 -37 94 -44 85 -30 108 80 125 117 18 129 17 160 -15z
m-567 -152 c15 -5 47 -29 71 -52 39 -38 42 -45 42 -96 0 -52 -2 -56 -53 -108
-50 -49 -58 -53 -100 -53 -40 0 -53 6 -88 37 -79 71 -90 134 -36 205 32 42 86
78 119 78 9 0 29 -5 45 -11z m496 -218 c53 -37 103 -90 111 -118 13 -43 -12
-101 -55 -130 -36 -24 -45 -25 -118 -20 -134 9 -158 36 -112 125 16 31 32 71
36 89 9 45 41 83 71 83 14 0 44 -13 67 -29z m-919 -57 c10 -27 30 -72 44 -101
22 -46 23 -55 11 -69 -23 -28 -74 -44 -139 -44 -57 0 -63 2 -105 41 -40 37
-45 46 -45 84 0 39 5 48 46 83 25 22 64 50 87 61 52 26 74 14 101 -55z m705
-208 c18 -22 45 -169 37 -202 -10 -37 -76 -100 -112 -107 -15 -3 -38 -1 -49 3
-21 8 -110 113 -134 159 -19 34 7 64 76 89 32 12 74 33 93 46 40 28 72 33 89
12z m-501 -35 c31 -15 73 -31 92 -35 33 -6 80 -40 80 -58 0 -13 -140 -178
-155 -184 -21 -9 -101 33 -129 67 -25 29 -26 36 -20 93 8 70 19 103 41 128 21
23 24 23 91 -11z"/>
<path d="M4988 6443 c-22 -5 -23 -26 -4 -42 8 -7 58 -27 111 -46 204 -71 377
-212 454 -370 82 -169 137 -412 181 -806 25 -218 39 -302 52 -310 24 -16 443
-2 557 18 44 8 45 9 63 68 25 84 58 368 58 503 0 171 -31 221 -175 287 -64 30
-107 42 -265 75 -30 6 -108 14 -172 17 -149 8 -162 15 -213 119 -79 164 -149
251 -266 329 -116 78 -312 168 -354 164 -5 -1 -18 -3 -27 -6z m1058 -678 c133
-30 236 -79 301 -142 43 -42 53 -58 58 -98 9 -56 0 -186 -20 -305 -49 -286
-36 -267 -195 -280 -63 -5 -164 -10 -223 -12 -101 -3 -110 -2 -126 19 -26 31
-109 499 -127 710 -7 88 -1 106 41 124 28 13 208 3 291 -16z"/>
<path d="M15270 7191 c0 -16 6 -21 26 -21 33 0 30 33 -4 38 -17 3 -22 -2 -22
-17z"/>
<path d="M13380 7185 c-17 -20 -6 -45 20 -45 17 0 21 5 18 27 -4 31 -20 40
-38 18z"/>
<path d="M15100 7175 c0 -31 26 -43 47 -22 13 13 14 19 3 31 -21 26 -50 20
-50 -9z"/>
<path d="M13577 7183 c-4 -3 -7 -15 -7 -25 0 -13 8 -18 30 -18 31 0 39 17 18
38 -13 13 -31 16 -41 5z"/>
<path d="M13787 7183 c-10 -10 -8 -41 3 -48 13 -8 50 13 50 29 0 20 -39 34
-53 19z"/>
<path d="M14875 7180 c-9 -14 4 -50 18 -50 22 0 39 17 35 36 -4 21 -42 31 -53
14z"/>
<path d="M14201 7161 c-9 -16 -8 -22 7 -30 23 -12 45 1 40 25 -5 26 -34 29
-47 5z"/>
<path d="M14662 7171 c-20 -12 -10 -46 12 -46 27 0 46 33 26 45 -18 12 -21 12
-38 1z"/>
<path d="M13984 7159 c-3 -6 1 -18 10 -27 15 -15 17 -15 32 0 19 19 11 38 -16
38 -10 0 -22 -5 -26 -11z"/>
<path d="M14447 7164 c-16 -16 -6 -34 19 -34 19 0 25 5 22 17 -3 19 -29 29
-41 17z"/>
<path d="M13771 6530 c-139 -50 -195 -144 -195 -330 -1 -177 43 -264 161 -322
l68 -33 335 0 c304 0 340 2 390 19 78 27 109 49 142 97 36 53 47 94 54 199 8
101 -13 210 -51 269 -27 44 -87 82 -164 105 -45 13 -109 16 -370 16 -286 -1
-321 -3 -370 -20z m7 -79 c-7 -9 -26 -30 -43 -47 -16 -17 -43 -50 -59 -73 -25
-37 -30 -41 -43 -29 -33 34 29 157 92 184 25 10 33 10 47 -3 15 -13 16 -19 6
-32z m868 -27 c37 -45 43 -74 18 -94 -17 -15 -10 -21 -93 73 -50 56 -52 60
-35 78 16 18 18 18 46 1 17 -9 46 -35 64 -58z m-339 30 l28 -21 3 -208 2 -208
-26 -28 c-31 -32 -108 -54 -155 -44 -17 4 -100 10 -184 14 -146 6 -154 8 -189
34 -126 96 -130 292 -8 398 94 80 126 87 394 85 92 -1 110 -4 135 -22z m194
-22 c71 -46 113 -108 130 -194 17 -83 -8 -158 -75 -223 -28 -27 -68 -56 -90
-64 -37 -13 -40 -12 -65 13 l-26 26 0 209 c0 208 0 210 24 235 31 33 47 33
102 -2z m-804 -390 c3 -9 33 -43 67 -74 57 -53 60 -58 44 -74 -24 -24 -65 -5
-122 56 -49 53 -65 92 -46 115 14 17 48 4 57 -23z m971 16 c22 -22 13 -46 -37
-97 -55 -57 -94 -72 -119 -48 -14 15 -13 19 23 49 21 18 55 50 74 71 39 41 42
42 59 25z"/>
<path d="M890 5912 c-94 -10 -118 -29 -62 -50 32 -12 3924 -10 3985 3 62 12
45 32 -35 41 -65 7 -3825 13 -3888 6z"/>
<path d="M803 5735 c-3 -9 -2 -19 2 -23 9 -10 4006 -19 4028 -9 37 17 18 34
-44 41 -34 3 -943 6 -2021 6 -1756 0 -1959 -2 -1965 -15z"/>
<path d="M805 5094 c-45 -45 -98 -44 1945 -44 1991 0 2320 4 2320 26 0 6 -8
16 -17 20 -10 5 -966 10 -2124 12 -1983 3 -2108 2 -2124 -14z"/>
<path d="M805 4936 c-20 -16 -20 -16 -1 -31 11 -8 29 -15 40 -15 543 -5 4188
-1 4204 4 40 13 25 34 -30 41 -29 3 -984 9 -2123 11 -1860 5 -2072 3 -2090
-10z"/>
<path d="M2180 4301 c-762 -3 -1386 -7 -1387 -9 -11 -9 1 -32 20 -39 12 -4
1062 -7 2332 -5 1271 2 2316 3 2323 2 18 0 15 37 -4 44 -25 10 -1770 13 -3284
7z"/>
<path d="M8867 4300 c-44 -8 -49 -12 -41 -33 8 -23 53 -26 308 -26 264 1 319
7 324 31 2 11 -5 19 -20 22 -39 8 -531 13 -571 6z"/>
<path d="M8869 4139 c-40 -9 -59 -27 -41 -38 36 -22 555 -23 615 -2 15 6 15 9
5 23 -11 15 -46 17 -280 20 -147 2 -281 0 -299 -3z"/>
<path d="M780 4120 c-9 -17 -6 -20 27 -26 53 -10 468 -11 526 -1 50 9 63 30
25 41 -13 3 -145 6 -295 6 -260 0 -273 -1 -283 -20z"/>
<path d="M3674 4125 c-4 -9 -3 -19 0 -23 24 -23 1795 -20 1803 4 2 6 -6 15
-19 20 -13 4 -418 9 -901 11 -798 4 -878 3 -883 -12z"/>
<path d="M4805 3500 c-172 -7 -205 -13 -205 -36 0 -33 48 -36 515 -31 253 3
472 9 488 13 35 8 35 30 0 39 -80 20 -500 28 -798 15z"/>
<path d="M8818 3489 c-10 -5 -18 -16 -18 -23 0 -8 8 -17 18 -21 25 -11 516
-18 587 -8 47 6 61 12 63 27 2 10 -2 22 -10 27 -19 13 -619 11 -640 -2z"/>
<path d="M4715 3334 c-96 -5 -115 -11 -115 -33 0 -13 10 -20 31 -25 55 -11
959 -7 980 4 27 15 23 37 -8 44 -32 7 -784 15 -888 10z"/>
<path d="M8905 3333 c-81 -4 -105 -11 -105 -28 0 -8 9 -19 19 -25 25 -13 590
-14 625 0 15 5 26 17 26 28 0 17 -13 19 -152 25 -146 7 -288 7 -413 0z"/>
<path d="M15767 3743 c-18 -18 -1 -36 64 -68 102 -50 124 -46 99 19 -5 15 -24
32 -46 41 -37 15 -105 20 -117 8z"/>
<path d="M15851 3234 c-21 -26 -28 -79 -13 -100 4 -6 21 -19 39 -27 28 -15 35
-15 67 -2 42 18 60 46 51 84 -16 72 -102 98 -144 45z m108 -36 c15 -25 14 -29
-8 -52 -32 -34 -55 -33 -81 5 l-22 30 23 25 c30 32 68 29 88 -8z"/>
<path d="M2475 2160 c-175 -17 -256 -54 -384 -175 -102 -98 -148 -162 -182
-255 -21 -60 -23 -79 -22 -250 1 -213 6 -233 79 -341 100 -147 219 -251 344
-298 169 -64 403 -47 575 43 153 79 260 209 325 393 29 81 31 99 32 218 1 153
-11 199 -79 315 -83 142 -247 285 -376 329 -64 22 -204 32 -312 21z m339 -53
c22 -12 48 -34 59 -49 19 -25 19 -33 9 -109 -12 -80 -30 -119 -58 -119 -6 0
-32 11 -55 25 -27 15 -60 25 -84 25 l-40 0 57 -24 c79 -32 130 -76 183 -156
74 -112 88 -187 56 -310 -42 -158 -225 -305 -381 -303 -73 1 -144 24 -221 74
-161 103 -224 305 -148 474 36 80 133 185 209 225 23 12 29 19 17 20 -17 0
-72 -26 -109 -52 -15 -11 -22 -9 -42 12 -21 21 -26 38 -32 113 -6 83 -6 89 17
113 30 32 71 54 101 54 27 0 69 -34 127 -103 44 -52 50 -80 24 -109 -15 -17
-14 -18 45 -18 33 0 69 -3 79 -6 13 -5 12 -2 -4 10 -35 26 -30 68 16 130 44
59 97 106 121 106 8 0 33 -10 54 -23z m-691 -301 c71 -15 97 -29 97 -52 0 -8
-14 -40 -30 -71 -17 -31 -35 -73 -42 -94 -6 -21 -19 -46 -29 -55 -16 -15 -22
-13 -73 21 -61 40 -126 107 -126 129 0 51 68 136 109 136 14 0 57 -6 94 -14z
m1021 -28 c20 -23 39 -57 42 -76 6 -33 3 -38 -71 -108 -42 -41 -85 -74 -95
-74 -23 0 -47 28 -55 65 -4 17 -24 62 -44 102 -33 67 -35 74 -20 89 18 17 111
41 171 43 31 1 42 -5 72 -41z m-87 -348 c18 -10 55 -42 84 -69 50 -48 51 -50
44 -93 -8 -49 -36 -85 -82 -104 -61 -26 -156 -13 -199 27 l-23 22 22 40 c12
22 30 54 39 71 9 17 17 41 18 54 0 22 40 72 57 72 4 0 22 -9 40 -20z m-928
-16 c11 -14 25 -42 32 -62 7 -20 25 -58 41 -83 15 -25 28 -51 28 -57 0 -5 -14
-22 -31 -36 -26 -23 -40 -26 -100 -26 -42 0 -81 6 -99 15 -35 18 -68 63 -76
105 -6 28 -1 37 42 82 47 47 105 87 131 88 6 0 21 -12 32 -26z m313 -328 c15
-3 39 -17 54 -29 38 -33 28 -59 -55 -141 l-70 -70 -41 14 c-23 7 -55 29 -72
48 -29 34 -30 38 -26 114 4 69 8 82 33 108 l28 29 61 -33 c34 -19 73 -36 88
-40z m425 33 c21 -43 20 -171 0 -202 -18 -28 -84 -67 -112 -67 -20 0 -118 92
-146 137 -19 30 -20 36 -6 56 8 13 44 35 78 50 35 14 80 33 99 41 48 20 72 16
87 -15z"/>
<path d="M2712 1725 c-13 -10 -22 -27 -22 -41 0 -33 61 -61 97 -45 13 6 23 14
23 19 0 24 -24 72 -35 72 -7 0 -19 2 -27 5 -7 3 -23 -2 -36 -10z"/>
<path d="M2332 1721 c-8 -4 -14 -23 -15 -41 -2 -41 21 -58 60 -44 24 8 28 16
31 52 3 42 3 42 -30 42 -18 0 -39 -4 -46 -9z"/>
<path d="M2515 1617 c-66 -26 -95 -62 -95 -120 0 -99 84 -162 181 -134 119 35
120 219 1 255 -46 14 -48 14 -87 -1z"/>
<path d="M2333 1335 c-25 -17 -29 -45 -13 -76 8 -14 21 -19 50 -19 35 0 40 3
46 27 9 33 -14 77 -41 81 -11 1 -30 -5 -42 -13z"/>
<path d="M2716 1329 c-51 -40 -13 -107 52 -90 53 14 52 111 -1 111 -14 0 -36
-10 -51 -21z"/>
<path d="M15768 1532 c-33 -20 -35 -40 -7 -76 36 -45 129 -26 129 27 0 61 -63
86 -122 49z m77 -22 c18 -20 18 -21 -3 -43 l-22 -21 -22 21 c-21 22 -21 23 -3
43 10 11 21 20 25 20 4 0 15 -9 25 -20z"/>
</g></g>
</svg>