<svg xmlns="http://www.w3.org/2000/svg" viewBox="0 0 440 170">
  <!-- outer bone rim (die-cut edge) -->
  <rect x="6" y="36" width="428" height="98" rx="49" ry="49" fill="#EFE3D0"/>
  <!-- teal sign body -->
  <rect x="12" y="42" width="416" height="86" rx="43" ry="43" fill="#2F5D57"/>
  <!-- bone inner keyline -->
  <rect x="24" y="54" width="392" height="62" rx="31" ry="31" fill="none" stroke="#EFE3D0" stroke-width="3.5"/>
  
  <g transform="translate(66,86) scale(0.62)" fill="#EFE3D0">
    <!-- trunk -->
    <path d="M-5,40 C-9,16 -6,-6 3,-22 L10,-19 C2,-4 -1,16 3,40 Z"/>
    <!-- fronds (compact, balanced canopy) -->
    <path d="M5,-23 C-10,-36 -30,-36 -42,-27 C-26,-31 -13,-26 1,-15 Z"/>
    <path d="M5,-24 C-5,-44 3,-60 18,-66 C9,-53 9,-40 10,-22 Z"/>
    <path d="M7,-23 C21,-37 41,-37 51,-27 C37,-31 23,-26 13,-15 Z"/>
    <path d="M6,-24 C18,-42 38,-46 50,-40 C37,-36 23,-29 13,-14 Z"/>
    <path d="M5,-24 C-7,-42 -27,-46 -39,-40 C-26,-36 -14,-29 -1,-14 Z"/>
    <!-- coconuts -->
    <circle cx="2" cy="-19" r="3.6"/>
    <circle cx="11" cy="-17" r="3.2"/>
  </g>

  <!-- main text -->
  <text x="258" y="86" font-family="Ultra" font-size="58" fill="#EFE3D0"
        text-anchor="middle" dominant-baseline="central" letter-spacing="2">TUK LN</text>
</svg>