<svg xmlns="http://www.w3.org/2000/svg" viewBox="0 0 360 360" preserveAspectRatio="xMidYMid meet"><circle cx="180" cy="180" r="176" fill="#241D18"/><circle cx="180" cy="180" r="167" fill="none" stroke="#C24A2C" stroke-width="3"/><text x="43.3" y="141.5" font-size="30" fill="#EFE3D0" font-family="Ultra" font-weight="400" text-anchor="middle" dominant-baseline="central" transform="rotate(-74.25 43.3 141.5)">H</text>
<text x="59.9" y="104.2" font-size="30" fill="#EFE3D0" font-family="Ultra" font-weight="400" text-anchor="middle" dominant-baseline="central" transform="rotate(-57.75 59.9 104.2)">A</text>
<text x="86.4" y="73.2" font-size="30" fill="#EFE3D0" font-family="Ultra" font-weight="400" text-anchor="middle" dominant-baseline="central" transform="rotate(-41.25 86.4 73.2)">N</text>
<text x="120.6" y="51.0" font-size="30" fill="#EFE3D0" font-family="Ultra" font-weight="400" text-anchor="middle" dominant-baseline="central" transform="rotate(-24.75 120.6 51.0)">G</text>
<text x="200.4" y="39.5" font-size="30" fill="#EFE3D0" font-family="Ultra" font-weight="400" text-anchor="middle" dominant-baseline="central" transform="rotate(8.25 200.4 39.5)">L</text>
<text x="239.4" y="51.0" font-size="30" fill="#EFE3D0" font-family="Ultra" font-weight="400" text-anchor="middle" dominant-baseline="central" transform="rotate(24.75 239.4 51.0)">O</text>
<text x="273.6" y="73.2" font-size="30" fill="#EFE3D0" font-family="Ultra" font-weight="400" text-anchor="middle" dominant-baseline="central" transform="rotate(41.25 273.6 73.2)">O</text>
<text x="300.1" y="104.2" font-size="30" fill="#EFE3D0" font-family="Ultra" font-weight="400" text-anchor="middle" dominant-baseline="central" transform="rotate(57.75 300.1 104.2)">S</text>
<text x="316.7" y="141.5" font-size="30" fill="#EFE3D0" font-family="Ultra" font-weight="400" text-anchor="middle" dominant-baseline="central" transform="rotate(74.25 316.7 141.5)">E</text><path d="M 158 282 C 140 280 130 256 129 230 C 128 208 126 190 120 175 C 110 158 96 134 84 114 C 77 103 82 94 92 97 C 104 101 120 126 134 150 C 140 160 145 168 150 175 C 153 165 156 160 162 160 C 167 160 169 166 174 166 C 178 166 180 160 186 160 C 191 160 193 166 198 166 C 202 166 205 161 212 163 C 220 150 230 132 242 120 C 250 111 258 108 266 111 C 272 113 271 122 266 130 C 256 145 246 160 240 174 C 238 188 236 206 235 226 C 234 250 226 280 212 282 C 198 290 172 290 158 282 Z" fill="#EFE3D0"/><text x="180" y="322" font-size="17" fill="#C24A2C" font-family="DM Sans" font-weight="700" letter-spacing="9" text-anchor="middle">WELIGAMA</text></svg>