<svg xmlns="http://www.w3.org/2000/svg" viewBox="0 0 360 360">
<!-- scalloped bottle-cap edge in deep clay -->
<path d="M 332.00 180.00 Q 367.09 198.43 329.08 209.65 Q 359.90 234.57 320.43 238.17 Q 345.80 268.62 306.38 264.45 Q 325.33 299.27 287.48 287.48 Q 299.27 325.33 264.45 306.38 Q 268.62 345.80 238.17 320.43 Q 234.57 359.90 209.65 329.08 Q 198.43 367.09 180.00 332.00 Q 161.57 367.09 150.35 329.08 Q 125.43 359.90 121.83 320.43 Q 91.38 345.80 95.55 306.38 Q 60.73 325.33 72.52 287.48 Q 34.67 299.27 53.62 264.45 Q 14.20 268.62 39.57 238.17 Q 0.10 234.57 30.92 209.65 Q -7.09 198.43 28.00 180.00 Q -7.09 161.57 30.92 150.35 Q 0.10 125.43 39.57 121.83 Q 14.20 91.38 53.62 95.55 Q 34.67 60.73 72.52 72.52 Q 60.73 34.67 95.55 53.62 Q 91.38 14.20 121.83 39.57 Q 125.43 0.10 150.35 30.92 Q 161.57 -7.09 180.00 28.00 Q 198.43 -7.09 209.65 30.92 Q 234.57 0.10 238.17 39.57 Q 268.62 14.20 264.45 53.62 Q 299.27 34.67 287.48 72.52 Q 325.33 60.73 306.38 95.55 Q 345.80 91.38 320.43 121.83 Q 359.90 125.43 329.08 150.35 Q 367.09 161.57 332.00 180.00 Z" fill="#9E3A20"/>
<!-- thin charcoal keyline just inside the crinkle -->
<circle cx="180" cy="180" r="148" fill="none" stroke="#241D18" stroke-width="2.5"/>
<!-- bone inner disc -->
<circle cx="180" cy="180" r="132" fill="#EFE3D0"/>
<!-- ring band divider (outer) -->
<circle cx="180" cy="180" r="128" fill="none" stroke="#9E3A20" stroke-width="3"/>
<!-- ring band divider (inner) -->
<circle cx="180" cy="180" r="96" fill="none" stroke="#9E3A20" stroke-width="3"/>
<!-- terracotta center disc -->
<circle cx="180" cy="180" r="90" fill="#C24A2C"/>
<circle cx="180" cy="180" r="90" fill="none" stroke="#241D18" stroke-width="2"/>
<!-- ring text -->
<text x="68.3" y="171.2" font-size="17" fill="#241D18" font-family="DM Sans" font-weight="700" text-anchor="middle" dominant-baseline="central" transform="rotate(-85.50 68.3 171.2)">T</text>
<text x="77.3" y="135.3" font-size="17" fill="#241D18" font-family="DM Sans" font-weight="700" text-anchor="middle" dominant-baseline="central" transform="rotate(-66.50 77.3 135.3)">U</text>
<text x="97.4" y="104.3" font-size="17" fill="#241D18" font-family="DM Sans" font-weight="700" text-anchor="middle" dominant-baseline="central" transform="rotate(-47.50 97.4 104.3)">K</text>
<text x="161.5" y="69.5" font-size="17" fill="#241D18" font-family="DM Sans" font-weight="700" text-anchor="middle" dominant-baseline="central" transform="rotate(-9.50 161.5 69.5)">&amp;</text>
<text x="233.4" y="81.6" font-size="17" fill="#241D18" font-family="DM Sans" font-weight="700" text-anchor="middle" dominant-baseline="central" transform="rotate(28.50 233.4 81.6)">T</text>
<text x="262.6" y="104.3" font-size="17" fill="#241D18" font-family="DM Sans" font-weight="700" text-anchor="middle" dominant-baseline="central" transform="rotate(47.50 262.6 104.3)">I</text>
<text x="282.7" y="135.3" font-size="17" fill="#241D18" font-family="DM Sans" font-weight="700" text-anchor="middle" dominant-baseline="central" transform="rotate(66.50 282.7 135.3)">D</text>
<text x="291.7" y="171.2" font-size="17" fill="#241D18" font-family="DM Sans" font-weight="700" text-anchor="middle" dominant-baseline="central" transform="rotate(85.50 291.7 171.2)">E</text>
<text x="77.3" y="224.7" font-size="17" fill="#241D18" font-family="DM Sans" font-weight="700" text-anchor="middle" dominant-baseline="central" transform="rotate(66.50 77.3 224.7)">W</text>
<text x="97.4" y="255.7" font-size="17" fill="#241D18" font-family="DM Sans" font-weight="700" text-anchor="middle" dominant-baseline="central" transform="rotate(47.50 97.4 255.7)">E</text>
<text x="126.6" y="278.4" font-size="17" fill="#241D18" font-family="DM Sans" font-weight="700" text-anchor="middle" dominant-baseline="central" transform="rotate(28.50 126.6 278.4)">L</text>
<text x="161.5" y="290.5" font-size="17" fill="#241D18" font-family="DM Sans" font-weight="700" text-anchor="middle" dominant-baseline="central" transform="rotate(9.50 161.5 290.5)">I</text>
<text x="198.5" y="290.5" font-size="17" fill="#241D18" font-family="DM Sans" font-weight="700" text-anchor="middle" dominant-baseline="central" transform="rotate(-9.50 198.5 290.5)">G</text>
<text x="233.4" y="278.4" font-size="17" fill="#241D18" font-family="DM Sans" font-weight="700" text-anchor="middle" dominant-baseline="central" transform="rotate(-28.50 233.4 278.4)">A</text>
<text x="262.6" y="255.7" font-size="17" fill="#241D18" font-family="DM Sans" font-weight="700" text-anchor="middle" dominant-baseline="central" transform="rotate(-47.50 262.6 255.7)">M</text>
<text x="282.7" y="224.7" font-size="17" fill="#241D18" font-family="DM Sans" font-weight="700" text-anchor="middle" dominant-baseline="central" transform="rotate(-66.50 282.7 224.7)">A</text>
<circle cx="292.0" cy="180.0" r="2.6" fill="#241D18"/><circle cx="68.0" cy="180.0" r="2.6" fill="#241D18"/>
<!-- T&T monogram centered -->
<text x="180" y="181" font-size="60" fill="#241D18" font-family="Ultra"
  text-anchor="middle" dominant-baseline="central">T&amp;T</text>
</svg>