<svg xmlns="http://www.w3.org/2000/svg" viewBox="0 0 480 150">
  <path d="M 56 30 L 56 120 L 42 130 L 42 20 Z" fill="#9E3A20" stroke="#241D18" stroke-width="3.5" stroke-linejoin="round"/>
  <path d="M 424 30 L 424 120 L 438 130 L 438 20 Z" fill="#9E3A20" stroke="#241D18" stroke-width="3.5" stroke-linejoin="round"/>
  <path d="M 56 30 L 424 30 L 464 30 L 426 75.0 L 464 120 L 424 120 L 56 120 L 16 120 L 54 75.0 L 16 30 Z" fill="#C24A2C" stroke="#241D18" stroke-width="4" stroke-linejoin="round"/>
  <path d="M 58 37 L 422 37 L 453 41 L 433 75.0 L 453 109 L 422 113 L 58 113 L 27 109 L 47 75.0 L 27 41 Z" fill="none" stroke="#EFE3D0" stroke-width="1.5" stroke-linejoin="round"/>
  <text x="240.0" y="58.0" font-family="Ultra" font-size="34" fill="#EFE3D0"
        text-anchor="middle" dominant-baseline="central">THREE WHEELS</text>
  <text x="240.0" y="94.0" font-family="Ultra" font-size="34" fill="#EFE3D0"
        text-anchor="middle" dominant-baseline="central">TWO WAVES</text>
</svg>