<svg xmlns="http://www.w3.org/2000/svg" viewBox="0 0 480 230">
  <!-- die-cut bone body -->
  <rect x="8" y="8" width="464" height="214" rx="40" ry="40" fill="#EFE3D0"/>
  <!-- charcoal keyline -->
  <rect x="16" y="16" width="448" height="198" rx="33" ry="33" fill="none" stroke="#241D18" stroke-width="4"/>
  <g transform="translate(70,120) scale(1.0,1.0)" fill="#241D18">
    <path d="M-6,46 C-10,18 -6,-4 4,-22 L11,-19 C2,-2 -1,20 3,46 Z"/>
    <path d="M6,-24 C-12,-40 -34,-40 -48,-30 C-30,-34 -14,-28 0,-16 Z"/>
    <path d="M6,-24 C-6,-46 4,-66 22,-72 C12,-58 12,-42 12,-22 Z"/>
    <path d="M8,-24 C24,-42 48,-42 60,-30 C44,-34 26,-28 14,-16 Z"/>
    <path d="M8,-24 C22,-44 46,-48 60,-42 C46,-38 30,-30 16,-14 Z"/>
    <path d="M6,-24 C-8,-44 -30,-50 -46,-46 C-30,-40 -16,-30 0,-14 Z"/>
    <circle cx="2" cy="-20" r="4"/>
    <circle cx="12" cy="-18" r="3.5"/>
  </g>
  <g transform="translate(410,120) scale(-1.0,1.0)" fill="#241D18">
    <path d="M-6,46 C-10,18 -6,-4 4,-22 L11,-19 C2,-2 -1,20 3,46 Z"/>
    <path d="M6,-24 C-12,-40 -34,-40 -48,-30 C-30,-34 -14,-28 0,-16 Z"/>
    <path d="M6,-24 C-6,-46 4,-66 22,-72 C12,-58 12,-42 12,-22 Z"/>
    <path d="M8,-24 C24,-42 48,-42 60,-30 C44,-34 26,-28 14,-16 Z"/>
    <path d="M8,-24 C22,-44 46,-48 60,-42 C46,-38 30,-30 16,-14 Z"/>
    <path d="M6,-24 C-8,-44 -30,-50 -46,-46 C-30,-40 -16,-30 0,-14 Z"/>
    <circle cx="2" cy="-20" r="4"/>
    <circle cx="12" cy="-18" r="3.5"/>
  </g>
  <!-- WELIGAMA wordmark -->
  <text x="240" y="106" font-family="Shrikhand" font-size="58" fill="#C24A2C"
        text-anchor="middle" dominant-baseline="central" letter-spacing="1">WELIGAMA</text>
  <!-- divider rule -->
  <line x1="160" y1="150" x2="320" y2="150" stroke="#241D18" stroke-width="2.5"/>
  <!-- tagline -->
  <text x="240" y="184" font-family="Permanent Marker" font-size="26" fill="#241D18"
        text-anchor="middle" dominant-baseline="central" letter-spacing="1">south coast surf</text>
</svg>